<svg version="1.1" viewBox="0.0 0.0 650.0 330.0" fill="none" stroke="none" stroke-linecap="square" stroke-miterlimit="10" xmlns:xlink="http://www.w3.org/1999/xlink" xmlns="http://www.w3.org/2000/svg"><clipPath id="p.0"><path d="m0 0l650.0 0l0 330.0l-650.0 0l0 -330.0z" clip-rule="nonzero"/></clipPath><g clip-path="url(#p.0)"><path fill="#000000" fill-opacity="0.0" d="m0 0l650.0 0l0 330.0l-650.0 0z" fill-rule="evenodd"/><path fill="#6aa84f" d="m44.27559 50.4405l41.95276 0l0 41.95276l-41.95276 0z" fill-rule="evenodd"/><path stroke="#000000" stroke-width="1.0" stroke-linejoin="round" stroke-linecap="butt" d="m44.27559 50.4405l41.95276 0l0 41.95276l-41.95276 0z" fill-rule="evenodd"/><path fill="#ffffff" d="m86.23209 50.4405l41.95275 0l0 41.95276l-41.95275 0z" fill-rule="evenodd"/><path stroke="#000000" stroke-width="1.0" stroke-linejoin="round" stroke-linecap="butt" d="m86.23209 50.4405l41.95275 0l0 41.95276l-41.95275 0z" fill-rule="evenodd"/><path fill="#ffffff" d="m44.27559 92.397255l41.95276 0l0 41.95275l-41.95276 0z" fill-rule="evenodd"/><path stroke="#000000" stroke-width="1.0" stroke-linejoin="round" stroke-linecap="butt" d="m44.27559 92.397255l41.95276 0l0 41.95275l-41.95276 0z" fill-rule="evenodd"/><path fill="#ffffff" d="m86.23209 92.397255l41.95275 0l0 41.95275l-41.95275 0z" fill-rule="evenodd"/><path stroke="#000000" stroke-width="1.0" stroke-linejoin="round" stroke-linecap="butt" d="m86.23209 92.397255l41.95275 0l0 41.95275l-41.95275 0z" fill-rule="evenodd"/><path fill="#ffffff" d="m224.80464 49.97478l41.952774 0l0 41.952755l-41.952774 0z" fill-rule="evenodd"/><path stroke="#000000" stroke-width="1.0" stroke-linejoin="round" stroke-linecap="butt" d="m224.80464 49.97478l41.952774 0l0 41.952755l-41.952774 0z" fill-rule="evenodd"/><path fill="#ffffff" d="m266.76114 49.97478l41.95276 0l0 41.952755l-41.95276 0z" fill-rule="evenodd"/><path stroke="#000000" stroke-width="1.0" stroke-linejoin="round" stroke-linecap="butt" d="m266.76114 49.97478l41.95276 0l0 41.952755l-41.95276 0z" fill-rule="evenodd"/><path fill="#6aa84f" d="m224.80464 91.93154l41.952774 0l0 41.95275l-41.952774 0z" fill-rule="evenodd"/><path stroke="#000000" stroke-width="1.0" stroke-linejoin="round" stroke-linecap="butt" d="m224.80464 91.93154l41.952774 0l0 41.95275l-41.952774 0z" fill-rule="evenodd"/><path fill="#ffffff" d="m266.76114 91.93154l41.95276 0l0 41.95275l-41.95276 0z" fill-rule="evenodd"/><path stroke="#000000" stroke-width="1.0" stroke-linejoin="round" stroke-linecap="butt" d="m266.76114 91.93154l41.95276 0l0 41.95275l-41.95276 0z" fill-rule="evenodd"/><path fill="#666666" d="m155.51837 86.23042l30.551178 0l0 -5.7007904l11.401581 11.401581l-11.401581 11.401573l0 -5.7007904l-30.551178 0z" fill-rule="evenodd"/><path stroke="#000000" stroke-width="1.0" stroke-linejoin="round" stroke-linecap="butt" d="m155.51837 86.23042l30.551178 0l0 -5.7007904l11.401581 11.401581l-11.401581 11.401573l0 -5.7007904l-30.551178 0z" fill-rule="evenodd"/><path fill="#6aa84f" d="m44.27559 195.1864l41.95276 0l0 41.95276l-41.95276 0z" fill-rule="evenodd"/><path stroke="#000000" stroke-width="1.0" stroke-linejoin="round" stroke-linecap="butt" d="m44.27559 195.1864l41.95276 0l0 41.95276l-41.95276 0z" fill-rule="evenodd"/><path fill="#ffffff" d="m86.23209 195.1864l41.95275 0l0 41.95276l-41.95275 0z" fill-rule="evenodd"/><path stroke="#000000" stroke-width="1.0" stroke-linejoin="round" stroke-linecap="butt" d="m86.23209 195.1864l41.95275 0l0 41.95276l-41.95275 0z" fill-rule="evenodd"/><path fill="#6aa84f" d="m44.27559 237.14316l41.95276 0l0 41.95276l-41.95276 0z" fill-rule="evenodd"/><path stroke="#000000" stroke-width="1.0" stroke-linejoin="round" stroke-linecap="butt" d="m44.27559 237.14316l41.95276 0l0 41.95276l-41.95276 0z" fill-rule="evenodd"/><path fill="#ffffff" d="m86.23209 237.14316l41.95275 0l0 41.95276l-41.95275 0z" fill-rule="evenodd"/><path stroke="#000000" stroke-width="1.0" stroke-linejoin="round" stroke-linecap="butt" d="m86.23209 237.14316l41.95275 0l0 41.95276l-41.95275 0z" fill-rule="evenodd"/><path fill="#ffffff" d="m224.80464 194.72069l41.952774 0l0 41.952744l-41.952774 0z" fill-rule="evenodd"/><path stroke="#000000" stroke-width="1.0" stroke-linejoin="round" stroke-linecap="butt" d="m224.80464 194.72069l41.952774 0l0 41.952744l-41.952774 0z" fill-rule="evenodd"/><path fill="#ffffff" d="m266.76114 194.72069l41.95276 0l0 41.952744l-41.95276 0z" fill-rule="evenodd"/><path stroke="#000000" stroke-width="1.0" stroke-linejoin="round" stroke-linecap="butt" d="m266.76114 194.72069l41.95276 0l0 41.952744l-41.95276 0z" fill-rule="evenodd"/><path fill="#6aa84f" d="m224.80464 236.67744l41.952774 0l0 41.952744l-41.952774 0z" fill-rule="evenodd"/><path stroke="#000000" stroke-width="1.0" stroke-linejoin="round" stroke-linecap="butt" d="m224.80464 236.67744l41.952774 0l0 41.952744l-41.952774 0z" fill-rule="evenodd"/><path fill="#6aa84f" d="m266.76114 236.67744l41.95276 0l0 41.952744l-41.95276 0z" fill-rule="evenodd"/><path stroke="#000000" stroke-width="1.0" stroke-linejoin="round" stroke-linecap="butt" d="m266.76114 236.67744l41.95276 0l0 41.952744l-41.95276 0z" fill-rule="evenodd"/><path fill="#666666" d="m155.51837 230.97632l30.551178 0l0 -5.700775l11.401581 11.401566l-11.401581 11.401581l0 -5.7007904l-30.551178 0z" fill-rule="evenodd"/><path stroke="#000000" stroke-width="1.0" stroke-linejoin="round" stroke-linecap="butt" d="m155.51837 230.97632l30.551178 0l0 -5.700775l11.401581 11.401566l-11.401581 11.401581l0 -5.7007904l-30.551178 0z" fill-rule="evenodd"/><path fill="#6aa84f" d="m341.28497 50.439327l41.95276 0l0 41.952755l-41.95276 0z" fill-rule="evenodd"/><path stroke="#000000" stroke-width="1.0" stroke-linejoin="round" stroke-linecap="butt" d="m341.28497 50.439327l41.95276 0l0 41.952755l-41.95276 0z" fill-rule="evenodd"/><path fill="#ffffff" d="m383.2415 50.439327l41.95276 0l0 41.952755l-41.95276 0z" fill-rule="evenodd"/><path stroke="#000000" stroke-width="1.0" stroke-linejoin="round" stroke-linecap="butt" d="m383.2415 50.439327l41.95276 0l0 41.952755l-41.95276 0z" fill-rule="evenodd"/><path fill="#ffffff" d="m341.28497 92.39609l41.95276 0l0 41.95276l-41.95276 0z" fill-rule="evenodd"/><path stroke="#000000" stroke-width="1.0" stroke-linejoin="round" stroke-linecap="butt" d="m341.28497 92.39609l41.95276 0l0 41.95276l-41.95276 0z" fill-rule="evenodd"/><path fill="#6aa84f" d="m383.2415 92.39609l41.95276 0l0 41.95276l-41.95276 0z" fill-rule="evenodd"/><path stroke="#000000" stroke-width="1.0" stroke-linejoin="round" stroke-linecap="butt" d="m383.2415 92.39609l41.95276 0l0 41.95276l-41.95276 0z" fill-rule="evenodd"/><path fill="#ffffff" d="m521.814 49.97361l41.95276 0l0 41.95276l-41.95276 0z" fill-rule="evenodd"/><path stroke="#000000" stroke-width="1.0" stroke-linejoin="round" stroke-linecap="butt" d="m521.814 49.97361l41.95276 0l0 41.95276l-41.95276 0z" fill-rule="evenodd"/><path fill="#ffffff" d="m563.7705 49.97361l41.95276 0l0 41.95276l-41.95276 0z" fill-rule="evenodd"/><path stroke="#000000" stroke-width="1.0" stroke-linejoin="round" stroke-linecap="butt" d="m563.7705 49.97361l41.95276 0l0 41.95276l-41.95276 0z" fill-rule="evenodd"/><path fill="#6aa84f" d="m521.814 91.93037l41.95276 0l0 41.95275l-41.95276 0z" fill-rule="evenodd"/><path stroke="#000000" stroke-width="1.0" stroke-linejoin="round" stroke-linecap="butt" d="m521.814 91.93037l41.95276 0l0 41.95275l-41.95276 0z" fill-rule="evenodd"/><path fill="#6aa84f" d="m563.7705 91.93037l41.95276 0l0 41.95275l-41.95276 0z" fill-rule="evenodd"/><path stroke="#000000" stroke-width="1.0" stroke-linejoin="round" stroke-linecap="butt" d="m563.7705 91.93037l41.95276 0l0 41.95275l-41.95276 0z" fill-rule="evenodd"/><path fill="#666666" d="m452.52774 86.229256l30.551178 0l0 -5.7007904l11.401581 11.401573l-11.401581 11.401581l0 -5.7007904l-30.551178 0z" fill-rule="evenodd"/><path stroke="#000000" stroke-width="1.0" stroke-linejoin="round" stroke-linecap="butt" d="m452.52774 86.229256l30.551178 0l0 -5.7007904l11.401581 11.401573l-11.401581 11.401581l0 -5.7007904l-30.551178 0z" fill-rule="evenodd"/><path fill="#6aa84f" d="m341.28497 196.11784l41.95276 0l0 41.952744l-41.95276 0z" fill-rule="evenodd"/><path stroke="#000000" stroke-width="1.0" stroke-linejoin="round" stroke-linecap="butt" d="m341.28497 196.11784l41.95276 0l0 41.952744l-41.95276 0z" fill-rule="evenodd"/><path fill="#6aa84f" d="m383.2415 196.11784l41.95276 0l0 41.952744l-41.95276 0z" fill-rule="evenodd"/><path stroke="#000000" stroke-width="1.0" stroke-linejoin="round" stroke-linecap="butt" d="m383.2415 196.11784l41.95276 0l0 41.952744l-41.95276 0z" fill-rule="evenodd"/><path fill="#6aa84f" d="m341.28497 238.0746l41.95276 0l0 41.952744l-41.95276 0z" fill-rule="evenodd"/><path stroke="#000000" stroke-width="1.0" stroke-linejoin="round" stroke-linecap="butt" d="m341.28497 238.0746l41.95276 0l0 41.952744l-41.95276 0z" fill-rule="evenodd"/><path fill="#ffffff" d="m383.2415 238.0746l41.95276 0l0 41.952744l-41.95276 0z" fill-rule="evenodd"/><path stroke="#000000" stroke-width="1.0" stroke-linejoin="round" stroke-linecap="butt" d="m383.2415 238.0746l41.95276 0l0 41.952744l-41.95276 0z" fill-rule="evenodd"/><path fill="#6aa84f" d="m521.814 195.65211l41.95276 0l0 41.95276l-41.95276 0z" fill-rule="evenodd"/><path stroke="#000000" stroke-width="1.0" stroke-linejoin="round" stroke-linecap="butt" d="m521.814 195.65211l41.95276 0l0 41.95276l-41.95276 0z" fill-rule="evenodd"/><path fill="#ffffff" d="m563.7705 195.65211l41.95276 0l0 41.95276l-41.95276 0z" fill-rule="evenodd"/><path stroke="#000000" stroke-width="1.0" stroke-linejoin="round" stroke-linecap="butt" d="m563.7705 195.65211l41.95276 0l0 41.95276l-41.95276 0z" fill-rule="evenodd"/><path fill="#6aa84f" d="m521.814 237.60887l41.95276 0l0 41.952774l-41.95276 0z" fill-rule="evenodd"/><path stroke="#000000" stroke-width="1.0" stroke-linejoin="round" stroke-linecap="butt" d="m521.814 237.60887l41.95276 0l0 41.952774l-41.95276 0z" fill-rule="evenodd"/><path fill="#6aa84f" d="m563.7705 237.60887l41.95276 0l0 41.952774l-41.95276 0z" fill-rule="evenodd"/><path stroke="#000000" stroke-width="1.0" stroke-linejoin="round" stroke-linecap="butt" d="m563.7705 237.60887l41.95276 0l0 41.952774l-41.95276 0z" fill-rule="evenodd"/><path fill="#666666" d="m452.52774 231.90776l30.551178 0l0 -5.7007904l11.401581 11.401581l-11.401581 11.401566l0 -5.700775l-30.551178 0z" fill-rule="evenodd"/><path stroke="#000000" stroke-width="1.0" stroke-linejoin="round" stroke-linecap="butt" d="m452.52774 231.90776l30.551178 0l0 -5.7007904l11.401581 11.401581l-11.401581 11.401566l0 -5.700775l-30.551178 0z" fill-rule="evenodd"/></g></svg>