<svg version="1.1" viewBox="0.0 0.0 330.0 650.0" fill="none" stroke="none" stroke-linecap="square" stroke-miterlimit="10" xmlns:xlink="http://www.w3.org/1999/xlink" xmlns="http://www.w3.org/2000/svg"><clipPath id="p.0"><path d="m0 0l330.0 0l0 650.0l-330.0 0l0 -650.0z" clip-rule="nonzero"/></clipPath><g clip-path="url(#p.0)"><path fill="#000000" fill-opacity="0.0" d="m0 0l330.0 0l0 650.0l-330.0 0z" fill-rule="evenodd"/><path fill="#6aa84f" d="m16.711287 33.918636l47.055115 0l0 47.05512l-47.055115 0z" fill-rule="evenodd"/><path stroke="#000000" stroke-width="1.0" stroke-linejoin="round" stroke-linecap="butt" d="m16.711287 33.918636l47.055115 0l0 47.05512l-47.055115 0z" fill-rule="evenodd"/><path fill="#d9ead3" d="m63.766403 33.918636l47.055122 0l0 47.05512l-47.055122 0z" fill-rule="evenodd"/><path stroke="#000000" stroke-width="1.0" stroke-linejoin="round" stroke-linecap="butt" d="m63.766403 33.918636l47.055122 0l0 47.05512l-47.055122 0z" fill-rule="evenodd"/><path fill="#d9ead3" d="m16.711287 80.973755l47.055115 0l0 47.055115l-47.055115 0z" fill-rule="evenodd"/><path stroke="#000000" stroke-width="1.0" stroke-linejoin="round" stroke-linecap="butt" d="m16.711287 80.973755l47.055115 0l0 47.055115l-47.055115 0z" fill-rule="evenodd"/><path fill="#d9ead3" d="m63.766403 80.973755l47.055122 0l0 47.055115l-47.055122 0z" fill-rule="evenodd"/><path stroke="#000000" stroke-width="1.0" stroke-linejoin="round" stroke-linecap="butt" d="m63.766403 80.973755l47.055122 0l0 47.055115l-47.055122 0z" fill-rule="evenodd"/><path fill="#d9ead3" d="m219.17848 33.396324l47.0551 0l0 47.055122l-47.0551 0z" fill-rule="evenodd"/><path stroke="#000000" stroke-width="1.0" stroke-linejoin="round" stroke-linecap="butt" d="m219.17848 33.396324l47.0551 0l0 47.055122l-47.0551 0z" fill-rule="evenodd"/><path fill="#d9ead3" d="m266.23358 33.396324l47.055145 0l0 47.055122l-47.055145 0z" fill-rule="evenodd"/><path stroke="#000000" stroke-width="1.0" stroke-linejoin="round" stroke-linecap="butt" d="m266.23358 33.396324l47.055145 0l0 47.055122l-47.055145 0z" fill-rule="evenodd"/><path fill="#6aa84f" d="m219.17848 80.45145l47.0551 0l0 47.055115l-47.0551 0z" fill-rule="evenodd"/><path stroke="#000000" stroke-width="1.0" stroke-linejoin="round" stroke-linecap="butt" d="m219.17848 80.45145l47.0551 0l0 47.055115l-47.0551 0z" fill-rule="evenodd"/><path fill="#d9ead3" d="m266.23358 80.45145l47.055145 0l0 47.055115l-47.055145 0z" fill-rule="evenodd"/><path stroke="#000000" stroke-width="1.0" stroke-linejoin="round" stroke-linecap="butt" d="m266.23358 80.45145l47.055145 0l0 47.055115l-47.055145 0z" fill-rule="evenodd"/><path fill="#6aa84f" d="m141.47244 74.05774l34.267715 0l0 -6.3936996l12.787399 12.787407l-12.787399 12.787399l0 -6.3936996l-34.267715 0z" fill-rule="evenodd"/><path stroke="#000000" stroke-width="1.0" stroke-linejoin="round" stroke-linecap="butt" d="m141.47244 74.05774l34.267715 0l0 -6.3936996l12.787399 12.787407l-12.787399 12.787399l0 -6.3936996l-34.267715 0z" fill-rule="evenodd"/><path fill="#6aa84f" d="m16.711287 196.25328l47.055115 0l0 47.055115l-47.055115 0z" fill-rule="evenodd"/><path stroke="#000000" stroke-width="1.0" stroke-linejoin="round" stroke-linecap="butt" d="m16.711287 196.25328l47.055115 0l0 47.055115l-47.055115 0z" fill-rule="evenodd"/><path fill="#d9ead3" d="m63.766403 196.25328l47.055122 0l0 47.055115l-47.055122 0z" fill-rule="evenodd"/><path stroke="#000000" stroke-width="1.0" stroke-linejoin="round" stroke-linecap="butt" d="m63.766403 196.25328l47.055122 0l0 47.055115l-47.055122 0z" fill-rule="evenodd"/><path fill="#6aa84f" d="m16.711287 243.3084l47.055115 0l0 47.05513l-47.055115 0z" fill-rule="evenodd"/><path stroke="#000000" stroke-width="1.0" stroke-linejoin="round" stroke-linecap="butt" d="m16.711287 243.3084l47.055115 0l0 47.05513l-47.055115 0z" fill-rule="evenodd"/><path fill="#d9ead3" d="m63.766403 243.3084l47.055122 0l0 47.05513l-47.055122 0z" fill-rule="evenodd"/><path stroke="#000000" stroke-width="1.0" stroke-linejoin="round" stroke-linecap="butt" d="m63.766403 243.3084l47.055122 0l0 47.05513l-47.055122 0z" fill-rule="evenodd"/><path fill="#d9ead3" d="m219.17848 195.73097l47.0551 0l0 47.055115l-47.0551 0z" fill-rule="evenodd"/><path stroke="#000000" stroke-width="1.0" stroke-linejoin="round" stroke-linecap="butt" d="m219.17848 195.73097l47.0551 0l0 47.055115l-47.0551 0z" fill-rule="evenodd"/><path fill="#d9ead3" d="m266.23358 195.73097l47.055145 0l0 47.055115l-47.055145 0z" fill-rule="evenodd"/><path stroke="#000000" stroke-width="1.0" stroke-linejoin="round" stroke-linecap="butt" d="m266.23358 195.73097l47.055145 0l0 47.055115l-47.055145 0z" fill-rule="evenodd"/><path fill="#6aa84f" d="m219.17848 242.78609l47.0551 0l0 47.05513l-47.0551 0z" fill-rule="evenodd"/><path stroke="#000000" stroke-width="1.0" stroke-linejoin="round" stroke-linecap="butt" d="m219.17848 242.78609l47.0551 0l0 47.05513l-47.0551 0z" fill-rule="evenodd"/><path fill="#6aa84f" d="m266.23358 242.78609l47.055145 0l0 47.05513l-47.055145 0z" fill-rule="evenodd"/><path stroke="#000000" stroke-width="1.0" stroke-linejoin="round" stroke-linecap="butt" d="m266.23358 242.78609l47.055145 0l0 47.05513l-47.055145 0z" fill-rule="evenodd"/><path fill="#6aa84f" d="m141.47244 236.3924l34.267715 0l0 -6.3937073l12.787399 12.787399l-12.787399 12.787399l0 -6.393692l-34.267715 0z" fill-rule="evenodd"/><path stroke="#000000" stroke-width="1.0" stroke-linejoin="round" stroke-linecap="butt" d="m141.47244 236.3924l34.267715 0l0 -6.3937073l12.787399 12.787399l-12.787399 12.787399l0 -6.393692l-34.267715 0z" fill-rule="evenodd"/><path fill="#6aa84f" d="m16.711287 359.11285l47.055115 0l0 47.055115l-47.055115 0z" fill-rule="evenodd"/><path stroke="#000000" stroke-width="1.0" stroke-linejoin="round" stroke-linecap="butt" d="m16.711287 359.11285l47.055115 0l0 47.055115l-47.055115 0z" fill-rule="evenodd"/><path fill="#d9ead3" d="m63.766403 359.11285l47.055122 0l0 47.055115l-47.055122 0z" fill-rule="evenodd"/><path stroke="#000000" stroke-width="1.0" stroke-linejoin="round" stroke-linecap="butt" d="m63.766403 359.11285l47.055122 0l0 47.055115l-47.055122 0z" fill-rule="evenodd"/><path fill="#d9ead3" d="m16.711287 406.16797l47.055115 0l0 47.055115l-47.055115 0z" fill-rule="evenodd"/><path stroke="#000000" stroke-width="1.0" stroke-linejoin="round" stroke-linecap="butt" d="m16.711287 406.16797l47.055115 0l0 47.055115l-47.055115 0z" fill-rule="evenodd"/><path fill="#6aa84f" d="m63.766403 406.16797l47.055122 0l0 47.055115l-47.055122 0z" fill-rule="evenodd"/><path stroke="#000000" stroke-width="1.0" stroke-linejoin="round" stroke-linecap="butt" d="m63.766403 406.16797l47.055122 0l0 47.055115l-47.055122 0z" fill-rule="evenodd"/><path fill="#d9ead3" d="m219.17848 358.59055l47.0551 0l0 47.055115l-47.0551 0z" fill-rule="evenodd"/><path stroke="#000000" stroke-width="1.0" stroke-linejoin="round" stroke-linecap="butt" d="m219.17848 358.59055l47.0551 0l0 47.055115l-47.0551 0z" fill-rule="evenodd"/><path fill="#d9ead3" d="m266.23358 358.59055l47.055145 0l0 47.055115l-47.055145 0z" fill-rule="evenodd"/><path stroke="#000000" stroke-width="1.0" stroke-linejoin="round" stroke-linecap="butt" d="m266.23358 358.59055l47.055145 0l0 47.055115l-47.055145 0z" fill-rule="evenodd"/><path fill="#6aa84f" d="m219.17848 405.64566l47.0551 0l0 47.055115l-47.0551 0z" fill-rule="evenodd"/><path stroke="#000000" stroke-width="1.0" stroke-linejoin="round" stroke-linecap="butt" d="m219.17848 405.64566l47.0551 0l0 47.055115l-47.0551 0z" fill-rule="evenodd"/><path fill="#6aa84f" d="m266.23358 405.64566l47.055145 0l0 47.055115l-47.055145 0z" fill-rule="evenodd"/><path stroke="#000000" stroke-width="1.0" stroke-linejoin="round" stroke-linecap="butt" d="m266.23358 405.64566l47.055145 0l0 47.055115l-47.055145 0z" fill-rule="evenodd"/><path fill="#6aa84f" d="m141.47244 399.25198l34.267715 0l0 -6.3937073l12.787399 12.787384l-12.787399 12.787415l0 -6.3937073l-34.267715 0z" fill-rule="evenodd"/><path stroke="#000000" stroke-width="1.0" stroke-linejoin="round" stroke-linecap="butt" d="m141.47244 399.25198l34.267715 0l0 -6.3937073l12.787399 12.787384l-12.787399 12.787415l0 -6.3937073l-34.267715 0z" fill-rule="evenodd"/><path fill="#6aa84f" d="m16.711287 522.4934l47.055115 0l0 47.055176l-47.055115 0z" fill-rule="evenodd"/><path stroke="#000000" stroke-width="1.0" stroke-linejoin="round" stroke-linecap="butt" d="m16.711287 522.4934l47.055115 0l0 47.055176l-47.055115 0z" fill-rule="evenodd"/><path fill="#6aa84f" d="m63.766403 522.4934l47.055122 0l0 47.055176l-47.055122 0z" fill-rule="evenodd"/><path stroke="#000000" stroke-width="1.0" stroke-linejoin="round" stroke-linecap="butt" d="m63.766403 522.4934l47.055122 0l0 47.055176l-47.055122 0z" fill-rule="evenodd"/><path fill="#6aa84f" d="m16.711287 569.5486l47.055115 0l0 47.055115l-47.055115 0z" fill-rule="evenodd"/><path stroke="#000000" stroke-width="1.0" stroke-linejoin="round" stroke-linecap="butt" d="m16.711287 569.5486l47.055115 0l0 47.055115l-47.055115 0z" fill-rule="evenodd"/><path fill="#d9ead3" d="m63.766403 569.5486l47.055122 0l0 47.055115l-47.055122 0z" fill-rule="evenodd"/><path stroke="#000000" stroke-width="1.0" stroke-linejoin="round" stroke-linecap="butt" d="m63.766403 569.5486l47.055122 0l0 47.055115l-47.055122 0z" fill-rule="evenodd"/><path fill="#6aa84f" d="m219.17848 521.9711l47.0551 0l0 47.055115l-47.0551 0z" fill-rule="evenodd"/><path stroke="#000000" stroke-width="1.0" stroke-linejoin="round" stroke-linecap="butt" d="m219.17848 521.9711l47.0551 0l0 47.055115l-47.0551 0z" fill-rule="evenodd"/><path fill="#d9ead3" d="m266.23358 521.9711l47.055145 0l0 47.055115l-47.055145 0z" fill-rule="evenodd"/><path stroke="#000000" stroke-width="1.0" stroke-linejoin="round" stroke-linecap="butt" d="m266.23358 521.9711l47.055145 0l0 47.055115l-47.055145 0z" fill-rule="evenodd"/><path fill="#6aa84f" d="m219.17848 569.02625l47.0551 0l0 47.055115l-47.0551 0z" fill-rule="evenodd"/><path stroke="#000000" stroke-width="1.0" stroke-linejoin="round" stroke-linecap="butt" d="m219.17848 569.02625l47.0551 0l0 47.055115l-47.0551 0z" fill-rule="evenodd"/><path fill="#6aa84f" d="m266.23358 569.02625l47.055145 0l0 47.055115l-47.055145 0z" fill-rule="evenodd"/><path stroke="#000000" stroke-width="1.0" stroke-linejoin="round" stroke-linecap="butt" d="m266.23358 569.02625l47.055145 0l0 47.055115l-47.055145 0z" fill-rule="evenodd"/><path fill="#6aa84f" d="m141.47244 562.63257l34.267715 0l0 -6.393738l12.787399 12.787415l-12.787399 12.787415l0 -6.393738l-34.267715 0z" fill-rule="evenodd"/><path stroke="#000000" stroke-width="1.0" stroke-linejoin="round" stroke-linecap="butt" d="m141.47244 562.63257l34.267715 0l0 -6.393738l12.787399 12.787415l-12.787399 12.787415l0 -6.393738l-34.267715 0z" fill-rule="evenodd"/></g></svg>