<svg version="1.1" viewBox="0.0 0.0 650.0 330.0" fill="none" stroke="none" stroke-linecap="square" stroke-miterlimit="10" xmlns:xlink="http://www.w3.org/1999/xlink" xmlns="http://www.w3.org/2000/svg"><clipPath id="p.0"><path d="m0 0l650.0 0l0 330.0l-650.0 0l0 -330.0z" clip-rule="nonzero"/></clipPath><g clip-path="url(#p.0)"><path fill="#000000" fill-opacity="0.0" d="m0 0l650.0 0l0 330.0l-650.0 0z" fill-rule="evenodd"/><path fill="#6aa84f" d="m10.6692915 26.963255l47.05512 0l0 47.055115l-47.05512 0z" fill-rule="evenodd"/><path stroke="#000000" stroke-width="1.0" stroke-linejoin="round" stroke-linecap="butt" d="m10.6692915 26.963255l47.05512 0l0 47.055115l-47.05512 0z" fill-rule="evenodd"/><path fill="#ffffff" d="m57.72441 26.963255l47.055115 0l0 47.055115l-47.055115 0z" fill-rule="evenodd"/><path stroke="#000000" stroke-width="1.0" stroke-linejoin="round" stroke-linecap="butt" d="m57.72441 26.963255l47.055115 0l0 47.055115l-47.055115 0z" fill-rule="evenodd"/><path fill="#ffffff" d="m10.6692915 74.01837l47.05512 0l0 47.055122l-47.05512 0z" fill-rule="evenodd"/><path stroke="#000000" stroke-width="1.0" stroke-linejoin="round" stroke-linecap="butt" d="m10.6692915 74.01837l47.05512 0l0 47.055122l-47.05512 0z" fill-rule="evenodd"/><path fill="#ffffff" d="m57.72441 74.01837l47.055115 0l0 47.055122l-47.055115 0z" fill-rule="evenodd"/><path stroke="#000000" stroke-width="1.0" stroke-linejoin="round" stroke-linecap="butt" d="m57.72441 74.01837l47.055115 0l0 47.055122l-47.055115 0z" fill-rule="evenodd"/><path fill="#ffffff" d="m213.13649 26.440945l47.0551 0l0 47.05512l-47.0551 0z" fill-rule="evenodd"/><path stroke="#000000" stroke-width="1.0" stroke-linejoin="round" stroke-linecap="butt" d="m213.13649 26.440945l47.0551 0l0 47.05512l-47.0551 0z" fill-rule="evenodd"/><path fill="#ffffff" d="m260.1916 26.440945l47.055115 0l0 47.05512l-47.055115 0z" fill-rule="evenodd"/><path stroke="#000000" stroke-width="1.0" stroke-linejoin="round" stroke-linecap="butt" d="m260.1916 26.440945l47.055115 0l0 47.05512l-47.055115 0z" fill-rule="evenodd"/><path fill="#6aa84f" d="m213.13649 73.49606l47.0551 0l0 47.055115l-47.0551 0z" fill-rule="evenodd"/><path stroke="#000000" stroke-width="1.0" stroke-linejoin="round" stroke-linecap="butt" d="m213.13649 73.49606l47.0551 0l0 47.055115l-47.0551 0z" fill-rule="evenodd"/><path fill="#ffffff" d="m260.1916 73.49606l47.055115 0l0 47.055115l-47.055115 0z" fill-rule="evenodd"/><path stroke="#000000" stroke-width="1.0" stroke-linejoin="round" stroke-linecap="butt" d="m260.1916 73.49606l47.055115 0l0 47.055115l-47.055115 0z" fill-rule="evenodd"/><path fill="#666666" d="m135.43045 67.10236l34.267715 0l0 -6.3937035l12.787399 12.787403l-12.787399 12.787399l0 -6.3936996l-34.267715 0z" fill-rule="evenodd"/><path stroke="#000000" stroke-width="1.0" stroke-linejoin="round" stroke-linecap="butt" d="m135.43045 67.10236l34.267715 0l0 -6.3937035l12.787399 12.787403l-12.787399 12.787399l0 -6.3936996l-34.267715 0z" fill-rule="evenodd"/><path fill="#6aa84f" d="m10.6692915 189.2979l47.05512 0l0 47.055115l-47.05512 0z" fill-rule="evenodd"/><path stroke="#000000" stroke-width="1.0" stroke-linejoin="round" stroke-linecap="butt" d="m10.6692915 189.2979l47.05512 0l0 47.055115l-47.05512 0z" fill-rule="evenodd"/><path fill="#ffffff" d="m57.72441 189.2979l47.055115 0l0 47.055115l-47.055115 0z" fill-rule="evenodd"/><path stroke="#000000" stroke-width="1.0" stroke-linejoin="round" stroke-linecap="butt" d="m57.72441 189.2979l47.055115 0l0 47.055115l-47.055115 0z" fill-rule="evenodd"/><path fill="#6aa84f" d="m10.6692915 236.35301l47.05512 0l0 47.05513l-47.05512 0z" fill-rule="evenodd"/><path stroke="#000000" stroke-width="1.0" stroke-linejoin="round" stroke-linecap="butt" d="m10.6692915 236.35301l47.05512 0l0 47.05513l-47.05512 0z" fill-rule="evenodd"/><path fill="#ffffff" d="m57.72441 236.35301l47.055115 0l0 47.05513l-47.055115 0z" fill-rule="evenodd"/><path stroke="#000000" stroke-width="1.0" stroke-linejoin="round" stroke-linecap="butt" d="m57.72441 236.35301l47.055115 0l0 47.05513l-47.055115 0z" fill-rule="evenodd"/><path fill="#ffffff" d="m213.13649 188.77559l47.0551 0l0 47.055115l-47.0551 0z" fill-rule="evenodd"/><path stroke="#000000" stroke-width="1.0" stroke-linejoin="round" stroke-linecap="butt" d="m213.13649 188.77559l47.0551 0l0 47.055115l-47.0551 0z" fill-rule="evenodd"/><path fill="#ffffff" d="m260.1916 188.77559l47.055115 0l0 47.055115l-47.055115 0z" fill-rule="evenodd"/><path stroke="#000000" stroke-width="1.0" stroke-linejoin="round" stroke-linecap="butt" d="m260.1916 188.77559l47.055115 0l0 47.055115l-47.055115 0z" fill-rule="evenodd"/><path fill="#6aa84f" d="m213.13649 235.8307l47.0551 0l0 47.05513l-47.0551 0z" fill-rule="evenodd"/><path stroke="#000000" stroke-width="1.0" stroke-linejoin="round" stroke-linecap="butt" d="m213.13649 235.8307l47.0551 0l0 47.05513l-47.0551 0z" fill-rule="evenodd"/><path fill="#6aa84f" d="m260.1916 235.8307l47.055115 0l0 47.05513l-47.055115 0z" fill-rule="evenodd"/><path stroke="#000000" stroke-width="1.0" stroke-linejoin="round" stroke-linecap="butt" d="m260.1916 235.8307l47.055115 0l0 47.05513l-47.055115 0z" fill-rule="evenodd"/><path fill="#666666" d="m135.43045 229.43701l34.267715 0l0 -6.3937073l12.787399 12.787399l-12.787399 12.787399l0 -6.393692l-34.267715 0z" fill-rule="evenodd"/><path stroke="#000000" stroke-width="1.0" stroke-linejoin="round" stroke-linecap="butt" d="m135.43045 229.43701l34.267715 0l0 -6.3937073l12.787399 12.787399l-12.787399 12.787399l0 -6.393692l-34.267715 0z" fill-rule="evenodd"/><path fill="#6aa84f" d="m343.77167 26.961943l47.055115 0l0 47.055115l-47.055115 0z" fill-rule="evenodd"/><path stroke="#000000" stroke-width="1.0" stroke-linejoin="round" stroke-linecap="butt" d="m343.77167 26.961943l47.055115 0l0 47.055115l-47.055115 0z" fill-rule="evenodd"/><path fill="#ffffff" d="m390.82678 26.961943l47.055115 0l0 47.055115l-47.055115 0z" fill-rule="evenodd"/><path stroke="#000000" stroke-width="1.0" stroke-linejoin="round" stroke-linecap="butt" d="m390.82678 26.961943l47.055115 0l0 47.055115l-47.055115 0z" fill-rule="evenodd"/><path fill="#ffffff" d="m343.77167 74.01706l47.055115 0l0 47.055122l-47.055115 0z" fill-rule="evenodd"/><path stroke="#000000" stroke-width="1.0" stroke-linejoin="round" stroke-linecap="butt" d="m343.77167 74.01706l47.055115 0l0 47.055122l-47.055115 0z" fill-rule="evenodd"/><path fill="#6aa84f" d="m390.82678 74.01706l47.055115 0l0 47.055122l-47.055115 0z" fill-rule="evenodd"/><path stroke="#000000" stroke-width="1.0" stroke-linejoin="round" stroke-linecap="butt" d="m390.82678 74.01706l47.055115 0l0 47.055122l-47.055115 0z" fill-rule="evenodd"/><path fill="#ffffff" d="m546.23883 26.439632l47.055115 0l0 47.05512l-47.055115 0z" fill-rule="evenodd"/><path stroke="#000000" stroke-width="1.0" stroke-linejoin="round" stroke-linecap="butt" d="m546.23883 26.439632l47.055115 0l0 47.05512l-47.055115 0z" fill-rule="evenodd"/><path fill="#ffffff" d="m593.29395 26.439632l47.055115 0l0 47.05512l-47.055115 0z" fill-rule="evenodd"/><path stroke="#000000" stroke-width="1.0" stroke-linejoin="round" stroke-linecap="butt" d="m593.29395 26.439632l47.055115 0l0 47.05512l-47.055115 0z" fill-rule="evenodd"/><path fill="#6aa84f" d="m546.23883 73.49475l47.055115 0l0 47.055115l-47.055115 0z" fill-rule="evenodd"/><path stroke="#000000" stroke-width="1.0" stroke-linejoin="round" stroke-linecap="butt" d="m546.23883 73.49475l47.055115 0l0 47.055115l-47.055115 0z" fill-rule="evenodd"/><path fill="#6aa84f" d="m593.29395 73.49475l47.055115 0l0 47.055115l-47.055115 0z" fill-rule="evenodd"/><path stroke="#000000" stroke-width="1.0" stroke-linejoin="round" stroke-linecap="butt" d="m593.29395 73.49475l47.055115 0l0 47.055115l-47.055115 0z" fill-rule="evenodd"/><path fill="#666666" d="m468.5328 67.10105l34.26773 0l0 -6.3937035l12.787415 12.787403l-12.787415 12.787399l0 -6.3936996l-34.26773 0z" fill-rule="evenodd"/><path stroke="#000000" stroke-width="1.0" stroke-linejoin="round" stroke-linecap="butt" d="m468.5328 67.10105l34.26773 0l0 -6.3937035l12.787415 12.787403l-12.787415 12.787399l0 -6.3936996l-34.26773 0z" fill-rule="evenodd"/><path fill="#6aa84f" d="m343.77167 190.34251l47.055115 0l0 47.05513l-47.055115 0z" fill-rule="evenodd"/><path stroke="#000000" stroke-width="1.0" stroke-linejoin="round" stroke-linecap="butt" d="m343.77167 190.34251l47.055115 0l0 47.05513l-47.055115 0z" fill-rule="evenodd"/><path fill="#6aa84f" d="m390.82678 190.34251l47.055115 0l0 47.05513l-47.055115 0z" fill-rule="evenodd"/><path stroke="#000000" stroke-width="1.0" stroke-linejoin="round" stroke-linecap="butt" d="m390.82678 190.34251l47.055115 0l0 47.05513l-47.055115 0z" fill-rule="evenodd"/><path fill="#6aa84f" d="m343.77167 237.39764l47.055115 0l0 47.055115l-47.055115 0z" fill-rule="evenodd"/><path stroke="#000000" stroke-width="1.0" stroke-linejoin="round" stroke-linecap="butt" d="m343.77167 237.39764l47.055115 0l0 47.055115l-47.055115 0z" fill-rule="evenodd"/><path fill="#ffffff" d="m390.82678 237.39764l47.055115 0l0 47.055115l-47.055115 0z" fill-rule="evenodd"/><path stroke="#000000" stroke-width="1.0" stroke-linejoin="round" stroke-linecap="butt" d="m390.82678 237.39764l47.055115 0l0 47.055115l-47.055115 0z" fill-rule="evenodd"/><path fill="#6aa84f" d="m546.23883 189.8202l47.055115 0l0 47.05513l-47.055115 0z" fill-rule="evenodd"/><path stroke="#000000" stroke-width="1.0" stroke-linejoin="round" stroke-linecap="butt" d="m546.23883 189.8202l47.055115 0l0 47.05513l-47.055115 0z" fill-rule="evenodd"/><path fill="#ffffff" d="m593.29395 189.8202l47.055115 0l0 47.05513l-47.055115 0z" fill-rule="evenodd"/><path stroke="#000000" stroke-width="1.0" stroke-linejoin="round" stroke-linecap="butt" d="m593.29395 189.8202l47.055115 0l0 47.05513l-47.055115 0z" fill-rule="evenodd"/><path fill="#6aa84f" d="m546.23883 236.87534l47.055115 0l0 47.055115l-47.055115 0z" fill-rule="evenodd"/><path stroke="#000000" stroke-width="1.0" stroke-linejoin="round" stroke-linecap="butt" d="m546.23883 236.87534l47.055115 0l0 47.055115l-47.055115 0z" fill-rule="evenodd"/><path fill="#6aa84f" d="m593.29395 236.87534l47.055115 0l0 47.055115l-47.055115 0z" fill-rule="evenodd"/><path stroke="#000000" stroke-width="1.0" stroke-linejoin="round" stroke-linecap="butt" d="m593.29395 236.87534l47.055115 0l0 47.055115l-47.055115 0z" fill-rule="evenodd"/><path fill="#666666" d="m468.5328 230.48163l34.26773 0l0 -6.3937073l12.787415 12.787415l-12.787415 12.787399l0 -6.3937073l-34.26773 0z" fill-rule="evenodd"/><path stroke="#000000" stroke-width="1.0" stroke-linejoin="round" stroke-linecap="butt" d="m468.5328 230.48163l34.26773 0l0 -6.3937073l12.787415 12.787415l-12.787415 12.787399l0 -6.3937073l-34.26773 0z" fill-rule="evenodd"/></g></svg>