<svg version="1.1" viewBox="0.0 0.0 960.0 720.0" fill="none" stroke="none" stroke-linecap="square" stroke-miterlimit="10" xmlns:xlink="http://www.w3.org/1999/xlink" xmlns="http://www.w3.org/2000/svg"><clipPath id="p.0"><path d="m0 0l960.0 0l0 720.0l-960.0 0l0 -720.0z" clip-rule="nonzero"/></clipPath><g clip-path="url(#p.0)"><path fill="#000000" fill-opacity="0.0" d="m0 0l960.0 0l0 720.0l-960.0 0z" fill-rule="evenodd"/><path fill="#6aa84f" d="m59.38845 30.871391l47.055122 0l0 47.055115l-47.055122 0z" fill-rule="evenodd"/><path stroke="#000000" stroke-width="1.0" stroke-linejoin="round" stroke-linecap="butt" d="m59.38845 30.871391l47.055122 0l0 47.055115l-47.055122 0z" fill-rule="evenodd"/><path fill="#d9ead3" d="m106.44357 30.871391l47.055115 0l0 47.055115l-47.055115 0z" fill-rule="evenodd"/><path stroke="#000000" stroke-width="1.0" stroke-linejoin="round" stroke-linecap="butt" d="m106.44357 30.871391l47.055115 0l0 47.055115l-47.055115 0z" fill-rule="evenodd"/><path fill="#d9ead3" d="m59.38845 77.926506l47.055122 0l0 47.055122l-47.055122 0z" fill-rule="evenodd"/><path stroke="#000000" stroke-width="1.0" stroke-linejoin="round" stroke-linecap="butt" d="m59.38845 77.926506l47.055122 0l0 47.055122l-47.055122 0z" fill-rule="evenodd"/><path fill="#d9ead3" d="m106.44357 77.926506l47.055115 0l0 47.055122l-47.055115 0z" fill-rule="evenodd"/><path stroke="#000000" stroke-width="1.0" stroke-linejoin="round" stroke-linecap="butt" d="m106.44357 77.926506l47.055115 0l0 47.055122l-47.055115 0z" fill-rule="evenodd"/><path fill="#d9ead3" d="m261.85565 30.349081l47.055115 0l0 47.055115l-47.055115 0z" fill-rule="evenodd"/><path stroke="#000000" stroke-width="1.0" stroke-linejoin="round" stroke-linecap="butt" d="m261.85565 30.349081l47.055115 0l0 47.055115l-47.055115 0z" fill-rule="evenodd"/><path fill="#d9ead3" d="m308.91077 30.349081l47.055115 0l0 47.055115l-47.055115 0z" fill-rule="evenodd"/><path stroke="#000000" stroke-width="1.0" stroke-linejoin="round" stroke-linecap="butt" d="m308.91077 30.349081l47.055115 0l0 47.055115l-47.055115 0z" fill-rule="evenodd"/><path fill="#6aa84f" d="m261.85565 77.4042l47.055115 0l0 47.055122l-47.055115 0z" fill-rule="evenodd"/><path stroke="#000000" stroke-width="1.0" stroke-linejoin="round" stroke-linecap="butt" d="m261.85565 77.4042l47.055115 0l0 47.055122l-47.055115 0z" fill-rule="evenodd"/><path fill="#d9ead3" d="m308.91077 77.4042l47.055115 0l0 47.055122l-47.055115 0z" fill-rule="evenodd"/><path stroke="#000000" stroke-width="1.0" stroke-linejoin="round" stroke-linecap="butt" d="m308.91077 77.4042l47.055115 0l0 47.055122l-47.055115 0z" fill-rule="evenodd"/><path fill="#6aa84f" d="m184.14961 71.0105l34.267715 0l0 -6.3936996l12.787399 12.787399l-12.787399 12.787407l0 -6.3937073l-34.267715 0z" fill-rule="evenodd"/><path stroke="#000000" stroke-width="1.0" stroke-linejoin="round" stroke-linecap="butt" d="m184.14961 71.0105l34.267715 0l0 -6.3936996l12.787399 12.787399l-12.787399 12.787407l0 -6.3937073l-34.267715 0z" fill-rule="evenodd"/><path fill="#6aa84f" d="m59.38845 193.20604l47.055122 0l0 47.055115l-47.055122 0z" fill-rule="evenodd"/><path stroke="#000000" stroke-width="1.0" stroke-linejoin="round" stroke-linecap="butt" d="m59.38845 193.20604l47.055122 0l0 47.055115l-47.055122 0z" fill-rule="evenodd"/><path fill="#d9ead3" d="m106.44357 193.20604l47.055115 0l0 47.055115l-47.055115 0z" fill-rule="evenodd"/><path stroke="#000000" stroke-width="1.0" stroke-linejoin="round" stroke-linecap="butt" d="m106.44357 193.20604l47.055115 0l0 47.055115l-47.055115 0z" fill-rule="evenodd"/><path fill="#6aa84f" d="m59.38845 240.26115l47.055122 0l0 47.05513l-47.055122 0z" fill-rule="evenodd"/><path stroke="#000000" stroke-width="1.0" stroke-linejoin="round" stroke-linecap="butt" d="m59.38845 240.26115l47.055122 0l0 47.05513l-47.055122 0z" fill-rule="evenodd"/><path fill="#d9ead3" d="m106.44357 240.26115l47.055115 0l0 47.05513l-47.055115 0z" fill-rule="evenodd"/><path stroke="#000000" stroke-width="1.0" stroke-linejoin="round" stroke-linecap="butt" d="m106.44357 240.26115l47.055115 0l0 47.05513l-47.055115 0z" fill-rule="evenodd"/><path fill="#d9ead3" d="m261.85565 192.68373l47.055115 0l0 47.055115l-47.055115 0z" fill-rule="evenodd"/><path stroke="#000000" stroke-width="1.0" stroke-linejoin="round" stroke-linecap="butt" d="m261.85565 192.68373l47.055115 0l0 47.055115l-47.055115 0z" fill-rule="evenodd"/><path fill="#d9ead3" d="m308.91077 192.68373l47.055115 0l0 47.055115l-47.055115 0z" fill-rule="evenodd"/><path stroke="#000000" stroke-width="1.0" stroke-linejoin="round" stroke-linecap="butt" d="m308.91077 192.68373l47.055115 0l0 47.055115l-47.055115 0z" fill-rule="evenodd"/><path fill="#6aa84f" d="m261.85565 239.73885l47.055115 0l0 47.05513l-47.055115 0z" fill-rule="evenodd"/><path stroke="#000000" stroke-width="1.0" stroke-linejoin="round" stroke-linecap="butt" d="m261.85565 239.73885l47.055115 0l0 47.05513l-47.055115 0z" fill-rule="evenodd"/><path fill="#6aa84f" d="m308.91077 239.73885l47.055115 0l0 47.05513l-47.055115 0z" fill-rule="evenodd"/><path stroke="#000000" stroke-width="1.0" stroke-linejoin="round" stroke-linecap="butt" d="m308.91077 239.73885l47.055115 0l0 47.05513l-47.055115 0z" fill-rule="evenodd"/><path fill="#6aa84f" d="m184.14961 233.34514l34.267715 0l0 -6.393692l12.787399 12.787399l-12.787399 12.787399l0 -6.393692l-34.267715 0z" fill-rule="evenodd"/><path stroke="#000000" stroke-width="1.0" stroke-linejoin="round" stroke-linecap="butt" d="m184.14961 233.34514l34.267715 0l0 -6.393692l12.787399 12.787399l-12.787399 12.787399l0 -6.393692l-34.267715 0z" fill-rule="evenodd"/><path fill="#6aa84f" d="m59.38845 356.0656l47.055122 0l0 47.055115l-47.055122 0z" fill-rule="evenodd"/><path stroke="#000000" stroke-width="1.0" stroke-linejoin="round" stroke-linecap="butt" d="m59.38845 356.0656l47.055122 0l0 47.055115l-47.055122 0z" fill-rule="evenodd"/><path fill="#d9ead3" d="m106.44357 356.0656l47.055115 0l0 47.055115l-47.055115 0z" fill-rule="evenodd"/><path stroke="#000000" stroke-width="1.0" stroke-linejoin="round" stroke-linecap="butt" d="m106.44357 356.0656l47.055115 0l0 47.055115l-47.055115 0z" fill-rule="evenodd"/><path fill="#d9ead3" d="m59.38845 403.12073l47.055122 0l0 47.055115l-47.055122 0z" fill-rule="evenodd"/><path stroke="#000000" stroke-width="1.0" stroke-linejoin="round" stroke-linecap="butt" d="m59.38845 403.12073l47.055122 0l0 47.055115l-47.055122 0z" fill-rule="evenodd"/><path fill="#6aa84f" d="m106.44357 403.12073l47.055115 0l0 47.055115l-47.055115 0z" fill-rule="evenodd"/><path stroke="#000000" stroke-width="1.0" stroke-linejoin="round" stroke-linecap="butt" d="m106.44357 403.12073l47.055115 0l0 47.055115l-47.055115 0z" fill-rule="evenodd"/><path fill="#d9ead3" d="m261.85565 355.5433l47.055115 0l0 47.055115l-47.055115 0z" fill-rule="evenodd"/><path stroke="#000000" stroke-width="1.0" stroke-linejoin="round" stroke-linecap="butt" d="m261.85565 355.5433l47.055115 0l0 47.055115l-47.055115 0z" fill-rule="evenodd"/><path fill="#d9ead3" d="m308.91077 355.5433l47.055115 0l0 47.055115l-47.055115 0z" fill-rule="evenodd"/><path stroke="#000000" stroke-width="1.0" stroke-linejoin="round" stroke-linecap="butt" d="m308.91077 355.5433l47.055115 0l0 47.055115l-47.055115 0z" fill-rule="evenodd"/><path fill="#6aa84f" d="m261.85565 402.59842l47.055115 0l0 47.055115l-47.055115 0z" fill-rule="evenodd"/><path stroke="#000000" stroke-width="1.0" stroke-linejoin="round" stroke-linecap="butt" d="m261.85565 402.59842l47.055115 0l0 47.055115l-47.055115 0z" fill-rule="evenodd"/><path fill="#6aa84f" d="m308.91077 402.59842l47.055115 0l0 47.055115l-47.055115 0z" fill-rule="evenodd"/><path stroke="#000000" stroke-width="1.0" stroke-linejoin="round" stroke-linecap="butt" d="m308.91077 402.59842l47.055115 0l0 47.055115l-47.055115 0z" fill-rule="evenodd"/><path fill="#6aa84f" d="m184.14961 396.2047l34.267715 0l0 -6.3936768l12.787399 12.787384l-12.787399 12.787415l0 -6.3937073l-34.267715 0z" fill-rule="evenodd"/><path stroke="#000000" stroke-width="1.0" stroke-linejoin="round" stroke-linecap="butt" d="m184.14961 396.2047l34.267715 0l0 -6.3936768l12.787399 12.787384l-12.787399 12.787415l0 -6.3937073l-34.267715 0z" fill-rule="evenodd"/><path fill="#6aa84f" d="m59.38845 519.44617l47.055122 0l0 47.055176l-47.055122 0z" fill-rule="evenodd"/><path stroke="#000000" stroke-width="1.0" stroke-linejoin="round" stroke-linecap="butt" d="m59.38845 519.44617l47.055122 0l0 47.055176l-47.055122 0z" fill-rule="evenodd"/><path fill="#6aa84f" d="m106.44357 519.44617l47.055115 0l0 47.055176l-47.055115 0z" fill-rule="evenodd"/><path stroke="#000000" stroke-width="1.0" stroke-linejoin="round" stroke-linecap="butt" d="m106.44357 519.44617l47.055115 0l0 47.055176l-47.055115 0z" fill-rule="evenodd"/><path fill="#6aa84f" d="m59.38845 566.50134l47.055122 0l0 47.055115l-47.055122 0z" fill-rule="evenodd"/><path stroke="#000000" stroke-width="1.0" stroke-linejoin="round" stroke-linecap="butt" d="m59.38845 566.50134l47.055122 0l0 47.055115l-47.055122 0z" fill-rule="evenodd"/><path fill="#d9ead3" d="m106.44357 566.50134l47.055115 0l0 47.055115l-47.055115 0z" fill-rule="evenodd"/><path stroke="#000000" stroke-width="1.0" stroke-linejoin="round" stroke-linecap="butt" d="m106.44357 566.50134l47.055115 0l0 47.055115l-47.055115 0z" fill-rule="evenodd"/><path fill="#6aa84f" d="m261.85565 518.9239l47.055115 0l0 47.055115l-47.055115 0z" fill-rule="evenodd"/><path stroke="#000000" stroke-width="1.0" stroke-linejoin="round" stroke-linecap="butt" d="m261.85565 518.9239l47.055115 0l0 47.055115l-47.055115 0z" fill-rule="evenodd"/><path fill="#d9ead3" d="m308.91077 518.9239l47.055115 0l0 47.055115l-47.055115 0z" fill-rule="evenodd"/><path stroke="#000000" stroke-width="1.0" stroke-linejoin="round" stroke-linecap="butt" d="m308.91077 518.9239l47.055115 0l0 47.055115l-47.055115 0z" fill-rule="evenodd"/><path fill="#6aa84f" d="m261.85565 565.979l47.055115 0l0 47.055115l-47.055115 0z" fill-rule="evenodd"/><path stroke="#000000" stroke-width="1.0" stroke-linejoin="round" stroke-linecap="butt" d="m261.85565 565.979l47.055115 0l0 47.055115l-47.055115 0z" fill-rule="evenodd"/><path fill="#6aa84f" d="m308.91077 565.979l47.055115 0l0 47.055115l-47.055115 0z" fill-rule="evenodd"/><path stroke="#000000" stroke-width="1.0" stroke-linejoin="round" stroke-linecap="butt" d="m308.91077 565.979l47.055115 0l0 47.055115l-47.055115 0z" fill-rule="evenodd"/><path fill="#6aa84f" d="m184.14961 559.5853l34.267715 0l0 -6.393738l12.787399 12.787415l-12.787399 12.787415l0 -6.393738l-34.267715 0z" fill-rule="evenodd"/><path stroke="#000000" stroke-width="1.0" stroke-linejoin="round" stroke-linecap="butt" d="m184.14961 559.5853l34.267715 0l0 -6.393738l12.787399 12.787415l-12.787399 12.787415l0 -6.393738l-34.267715 0z" fill-rule="evenodd"/></g></svg>