<svg version="1.1" viewBox="0.0 0.0 960.0 720.0" fill="none" stroke="none" stroke-linecap="square" stroke-miterlimit="10" xmlns:xlink="http://www.w3.org/1999/xlink" xmlns="http://www.w3.org/2000/svg"><clipPath id="p.0"><path d="m0 0l960.0 0l0 720.0l-960.0 0l0 -720.0z" clip-rule="nonzero"/></clipPath><g clip-path="url(#p.0)"><path fill="#000000" fill-opacity="0.0" d="m0 0l960.0 0l0 720.0l-960.0 0z" fill-rule="evenodd"/><path fill="#000000" fill-opacity="0.0" d="m101.09974 159.12073l429.00787 0" fill-rule="evenodd"/><path stroke="#000000" stroke-width="1.0" stroke-linejoin="round" stroke-linecap="butt" d="m101.09974 159.12073l423.00787 0" fill-rule="evenodd"/><path fill="#000000" stroke="#000000" stroke-width="1.0" stroke-linecap="butt" d="m524.1076 160.77246l4.538086 -1.6517334l-4.538086 -1.6517181z" fill-rule="evenodd"/><path fill="#ffffff" d="m59.38845 30.871391l47.055122 0l0 47.055115l-47.055122 0z" fill-rule="evenodd"/><path stroke="#000000" stroke-width="1.0" stroke-linejoin="round" stroke-linecap="butt" stroke-dasharray="4.0,3.0" d="m59.38845 30.871391l47.055122 0l0 47.055115l-47.055122 0z" fill-rule="evenodd"/><path fill="#ffffff" d="m106.44357 30.871391l47.055115 0l0 47.055115l-47.055115 0z" fill-rule="evenodd"/><path stroke="#000000" stroke-width="1.0" stroke-linejoin="round" stroke-linecap="butt" stroke-dasharray="4.0,3.0" d="m106.44357 30.871391l47.055115 0l0 47.055115l-47.055115 0z" fill-rule="evenodd"/><path fill="#ffffff" d="m59.38845 77.926506l47.055122 0l0 47.055122l-47.055122 0z" fill-rule="evenodd"/><path stroke="#000000" stroke-width="1.0" stroke-linejoin="round" stroke-linecap="butt" stroke-dasharray="4.0,3.0" d="m59.38845 77.926506l47.055122 0l0 47.055122l-47.055122 0z" fill-rule="evenodd"/><path fill="#d9ead3" d="m106.44357 77.926506l47.055115 0l0 47.055122l-47.055115 0z" fill-rule="evenodd"/><path stroke="#000000" stroke-width="1.0" stroke-linejoin="round" stroke-linecap="butt" d="m106.44357 77.926506l47.055115 0l0 47.055122l-47.055115 0z" fill-rule="evenodd"/><path fill="#ffffff" d="m203.74016 30.871391l47.055115 0l0 47.055115l-47.055115 0z" fill-rule="evenodd"/><path stroke="#000000" stroke-width="1.0" stroke-linejoin="round" stroke-linecap="butt" stroke-dasharray="4.0,3.0" d="m203.74016 30.871391l47.055115 0l0 47.055115l-47.055115 0z" fill-rule="evenodd"/><path fill="#ffffff" d="m250.79527 30.871391l47.05513 0l0 47.055115l-47.05513 0z" fill-rule="evenodd"/><path stroke="#000000" stroke-width="1.0" stroke-linejoin="round" stroke-linecap="butt" stroke-dasharray="4.0,3.0" d="m250.79527 30.871391l47.05513 0l0 47.055115l-47.05513 0z" fill-rule="evenodd"/><path fill="#ffffff" d="m250.79527 77.926506l47.05513 0l0 47.055122l-47.05513 0z" fill-rule="evenodd"/><path stroke="#000000" stroke-width="1.0" stroke-linejoin="round" stroke-linecap="butt" stroke-dasharray="4.0,3.0" d="m250.79527 77.926506l47.05513 0l0 47.055122l-47.05513 0z" fill-rule="evenodd"/><path fill="#d9ead3" d="m203.74016 77.926506l47.055115 0l0 47.055122l-47.055115 0z" fill-rule="evenodd"/><path stroke="#000000" stroke-width="1.0" stroke-linejoin="round" stroke-linecap="butt" d="m203.74016 77.926506l47.055115 0l0 47.055122l-47.055115 0z" fill-rule="evenodd"/><path fill="#ffffff" d="m348.09186 77.926506l47.055115 0l0 47.055122l-47.055115 0z" fill-rule="evenodd"/><path stroke="#000000" stroke-width="1.0" stroke-linejoin="round" stroke-linecap="butt" stroke-dasharray="4.0,3.0" d="m348.09186 77.926506l47.055115 0l0 47.055122l-47.055115 0z" fill-rule="evenodd"/><path fill="#ffffff" d="m395.14697 30.871391l47.055115 0l0 47.055115l-47.055115 0z" fill-rule="evenodd"/><path stroke="#000000" stroke-width="1.0" stroke-linejoin="round" stroke-linecap="butt" stroke-dasharray="4.0,3.0" d="m395.14697 30.871391l47.055115 0l0 47.055115l-47.055115 0z" fill-rule="evenodd"/><path fill="#ffffff" d="m395.14697 77.926506l47.055115 0l0 47.055122l-47.055115 0z" fill-rule="evenodd"/><path stroke="#000000" stroke-width="1.0" stroke-linejoin="round" stroke-linecap="butt" stroke-dasharray="4.0,3.0" d="m395.14697 77.926506l47.055115 0l0 47.055122l-47.055115 0z" fill-rule="evenodd"/><path fill="#d9ead3" d="m348.09186 30.871391l47.055115 0l0 47.055115l-47.055115 0z" fill-rule="evenodd"/><path stroke="#000000" stroke-width="1.0" stroke-linejoin="round" stroke-linecap="butt" d="m348.09186 30.871391l47.055115 0l0 47.055115l-47.055115 0z" fill-rule="evenodd"/><path fill="#ffffff" d="m492.44357 77.926506l47.055084 0l0 47.055122l-47.055084 0z" fill-rule="evenodd"/><path stroke="#000000" stroke-width="1.0" stroke-linejoin="round" stroke-linecap="butt" stroke-dasharray="4.0,3.0" d="m492.44357 77.926506l47.055084 0l0 47.055122l-47.055084 0z" fill-rule="evenodd"/><path fill="#ffffff" d="m492.44357 30.871391l47.055084 0l0 47.055115l-47.055084 0z" fill-rule="evenodd"/><path stroke="#000000" stroke-width="1.0" stroke-linejoin="round" stroke-linecap="butt" stroke-dasharray="4.0,3.0" d="m492.44357 30.871391l47.055084 0l0 47.055115l-47.055084 0z" fill-rule="evenodd"/><path fill="#ffffff" d="m539.49866 77.926506l47.055176 0l0 47.055122l-47.055176 0z" fill-rule="evenodd"/><path stroke="#000000" stroke-width="1.0" stroke-linejoin="round" stroke-linecap="butt" stroke-dasharray="4.0,3.0" d="m539.49866 77.926506l47.055176 0l0 47.055122l-47.055176 0z" fill-rule="evenodd"/><path fill="#d9ead3" d="m539.49866 30.871391l47.055176 0l0 47.055115l-47.055176 0z" fill-rule="evenodd"/><path stroke="#000000" stroke-width="1.0" stroke-linejoin="round" stroke-linecap="butt" d="m539.49866 30.871391l47.055176 0l0 47.055115l-47.055176 0z" fill-rule="evenodd"/><path fill="#000000" fill-opacity="0.0" d="m470.69553 154.72704l90.55118 0l0 42.015747l-90.55118 0z" fill-rule="evenodd"/><path fill="#000000" d="m490.4924 169.28766l0.140625 2.90625l-0.359375 0q-0.09375 -0.765625 -0.265625 -1.09375q-0.28125 -0.53125 -0.75 -0.78125q-0.46875 -0.25 -1.234375 -0.25l-1.734375 0l0 9.4375q0 1.140625 0.234375 1.421875q0.34375 0.375 1.0625 0.375l0.4375 0l0 0.34375l-5.234375 0l0 -0.34375l0.4375 0q0.78125 0 1.109375 -0.46875q0.203125 -0.296875 0.203125 -1.328125l0 -9.4375l-1.484375 0q-0.875 0 -1.234375 0.125q-0.46875 0.171875 -0.8125 0.671875q-0.34375 0.484375 -0.40625 1.328125l-0.34375 0l0.140625 -2.90625l10.09375 0zm2.645996 -0.59375q0.390625 0 0.65625 0.265625q0.265625 0.265625 0.265625 0.65625q0 0.375 -0.265625 0.65625q-0.265625 0.265625 -0.65625 0.265625q-0.375 0 -0.65625 -0.265625q-0.265625 -0.28125 -0.265625 -0.65625q0 -0.390625 0.265625 -0.65625q0.265625 -0.265625 0.65625 -0.265625zm0.765625 4.359375l0 6.703125q0 0.78125 0.109375 1.046875q0.109375 0.265625 0.328125 0.390625q0.234375 0.125 0.828125 0.125l0 0.328125l-4.0625 0l0 -0.328125q0.609375 0 0.8125 -0.109375q0.21875 -0.125 0.34375 -0.390625q0.125 -0.28125 0.125 -1.0625l0 -3.203125q0 -1.359375 -0.078125 -1.765625q-0.078125 -0.296875 -0.21875 -0.40625q-0.125 -0.109375 -0.359375 -0.109375q-0.265625 0 -0.625 0.140625l-0.125 -0.328125l2.515625 -1.03125l0.40625 0zm4.7770386 1.78125q0.90625 -0.90625 1.078125 -1.046875q0.40625 -0.34375 0.875 -0.53125q0.484375 -0.203125 0.9375 -0.203125q0.78125 0 1.34375 0.46875q0.578125 0.453125 0.765625 1.3125q0.9375 -1.09375 1.578125 -1.4375q0.65625 -0.34375 1.34375 -0.34375q0.65625 0 1.171875 0.34375q0.515625 0.34375 0.8125 1.125q0.203125 0.515625 0.203125 1.65625l0 3.578125q0 0.78125 0.125 1.078125q0.078125 0.203125 0.328125 0.34375q0.25 0.140625 0.796875 0.140625l0 0.328125l-4.109375 0l0 -0.328125l0.171875 0q0.53125 0 0.84375 -0.203125q0.203125 -0.15625 0.296875 -0.46875q0.03125 -0.15625 0.03125 -0.890625l0 -3.578125q0 -1.03125 -0.234375 -1.453125q-0.359375 -0.578125 -1.140625 -0.578125q-0.484375 0 -0.984375 0.25q-0.484375 0.234375 -1.171875 0.890625l-0.015625 0.09375l0.015625 0.40625l0 3.96875q0 0.859375 0.09375 1.078125q0.09375 0.203125 0.359375 0.34375q0.265625 0.140625 0.90625 0.140625l0 0.328125l-4.21875 0l0 -0.328125q0.6875 0 0.953125 -0.15625q0.265625 -0.171875 0.359375 -0.5q0.046875 -0.15625 0.046875 -0.90625l0 -3.578125q0 -1.03125 -0.296875 -1.46875q-0.40625 -0.59375 -1.125 -0.59375q-0.5 0 -0.96875 0.265625q-0.765625 0.40625 -1.171875 0.90625l0 4.46875q0 0.828125 0.109375 1.078125q0.109375 0.234375 0.328125 0.359375q0.234375 0.125 0.921875 0.125l0 0.328125l-4.125 0l0 -0.328125q0.5625 0 0.796875 -0.125q0.234375 -0.125 0.34375 -0.390625q0.125 -0.265625 0.125 -1.046875l0 -3.1875q0 -1.375 -0.09375 -1.765625q-0.0625 -0.3125 -0.203125 -0.421875q-0.125 -0.109375 -0.359375 -0.109375q-0.265625 0 -0.609375 0.140625l-0.140625 -0.328125l2.515625 -1.03125l0.390625 0l0 1.78125zm13.433319 1.609375q0 1.859375 0.90625 2.921875q0.90625 1.046875 2.140625 1.046875q0.8125 0 1.421875 -0.4375q0.609375 -0.453125 1.015625 -1.546875l0.28125 0.171875q-0.1875 1.25 -1.109375 2.28125q-0.921875 1.015625 -2.296875 1.015625q-1.515625 0 -2.59375 -1.171875q-1.0625 -1.171875 -1.0625 -3.140625q0 -2.140625 1.09375 -3.328125q1.109375 -1.203125 2.765625 -1.203125q1.40625 0 2.296875 0.921875q0.90625 0.921875 0.90625 2.46875l-5.765625 0zm0 -0.53125l3.859375 0q-0.046875 -0.796875 -0.1875 -1.125q-0.234375 -0.515625 -0.6875 -0.796875q-0.4375 -0.296875 -0.9375 -0.296875q-0.75 0 -1.34375 0.59375q-0.59375 0.578125 -0.703125 1.625zm7.2961426 8.84375l0 -0.40625q0.9375 -0.3125 1.453125 -0.96875q0.515625 -0.640625 0.515625 -1.375q0 -0.171875 -0.078125 -0.28125q-0.0625 -0.09375 -0.125 -0.09375q-0.109375 0 -0.4375 0.1875q-0.171875 0.078125 -0.34375 0.078125q-0.453125 0 -0.71875 -0.25q-0.265625 -0.265625 -0.265625 -0.734375q0 -0.453125 0.34375 -0.765625q0.34375 -0.328125 0.828125 -0.328125q0.609375 0 1.078125 0.53125q0.46875 0.515625 0.46875 1.390625q0 0.9375 -0.65625 1.734375q-0.65625 0.8125 -2.0625 1.28125zm11.328125 -14.203125l0 2.75l1.953125 0l0 0.640625l-1.953125 0l0 5.40625q0 0.8125 0.234375 1.09375q0.234375 0.28125 0.59375 0.28125q0.3125 0 0.59375 -0.1875q0.28125 -0.1875 0.4375 -0.546875l0.34375 0q-0.3125 0.890625 -0.90625 1.34375q-0.578125 0.453125 -1.1875 0.453125q-0.421875 0 -0.828125 -0.234375q-0.390625 -0.234375 -0.59375 -0.65625q-0.1875 -0.4375 -0.1875 -1.34375l0 -5.609375l-1.3125 0l0 -0.296875q0.5 -0.203125 1.015625 -0.6875q0.53125 -0.484375 0.9375 -1.125q0.203125 -0.359375 0.578125 -1.28125l0.28125 0z" fill-rule="nonzero"/><path fill="#000000" fill-opacity="0.0" d="m180.20735 159.12335c-25.118118 0 -50.23622 -17.070862 -50.23622 -34.141724" fill-rule="evenodd"/><path stroke="#000000" stroke-width="1.0" stroke-linejoin="round" stroke-linecap="butt" d="m174.58601 158.8437l-0.25375366 -0.024780273c-0.39006042 -0.04005432 -0.7796631 -0.0839386 -1.1686859 -0.13160706c-0.7780304 -0.095336914 -1.553772 -0.20578003 -2.3264618 -0.33081055c-3.0906982 -0.5001221 -6.1323395 -1.2336426 -9.075882 -2.1672058c-5.8870544 -1.8671265 -11.381638 -4.534439 -16.091278 -7.7352295c-4.709656 -3.2007904 -8.634354 -6.9350433 -11.381653 -10.93602c-1.373642 -2.0005035 -2.452942 -4.0676727 -3.1888123 -6.1681976c-0.18397522 -0.52511597 -0.34648132 -1.0523376 -0.48675537 -1.5811157c-0.07014465 -0.26437378 -0.13471985 -0.52915955 -0.19364929 -0.79426575l-0.04737854 -0.22407532" fill-rule="evenodd"/><path fill="#000000" stroke="#000000" stroke-width="1.0" stroke-linecap="butt" d="m174.58603 158.8437l2.2925873 1.7814026l2.458084 -1.5450592l-2.2925873 -1.7814026z" fill-rule="evenodd"/><path fill="#000000" stroke="#000000" stroke-width="1.0" stroke-linecap="butt" d="m130.02397 125.47883c0.9034271 -0.09602356 1.713623 0.5585022 1.8096466 1.4619217c0.09602356 0.9034195 -0.5585022 1.713623 -1.4619293 1.8096466c-0.90341187 0.09602356 -1.713623 -0.5585022 -1.8096466 -1.4619217c-0.0960083 -0.9034195 0.55851746 -1.7136307 1.4619293 -1.8096466z" fill-rule="nonzero"/><path fill="#000000" fill-opacity="0.0" d="m240.87401 162.65092c0 -9.417328 -3.4015656 -14.125992 -6.8031464 -18.834656c-3.4015656 -4.708664 -6.8031464 -9.417313 -6.8031464 -18.83464" fill-rule="evenodd"/><path stroke="#000000" stroke-width="1.0" stroke-linejoin="round" stroke-linecap="butt" d="m240.4112 157.0417l-0.053955078 -0.29699707c-0.021972656 -0.11669922 -0.0446167 -0.23252869 -0.067871094 -0.34747314c-0.3720398 -1.839325 -0.90353394 -3.4579315 -1.541336 -4.9293823c-1.275589 -2.9429169 -2.9763794 -5.297241 -4.67717 -7.651581c-1.7007904 -2.3543243 -3.4015656 -4.708664 -4.6771545 -7.6515656c-0.6378021 -1.4714661 -1.1692963 -3.0900574 -1.5413513 -4.9293823c-0.09300232 -0.45983887 -0.17605591 -0.9334564 -0.24830627 -1.4220276c-0.036117554 -0.24427795 -0.0695343 -0.49230957 -0.10017395 -0.7442169l-0.034835815 -0.3027954" fill-rule="evenodd"/><path fill="#000000" stroke="#000000" stroke-width="1.0" stroke-linecap="butt" d="m240.41118 157.0417l-1.4640656 2.5071716l1.8552246 2.2332764l1.4640656 -2.5071716z" fill-rule="evenodd"/><path fill="#000000" stroke="#000000" stroke-width="1.0" stroke-linecap="butt" d="m227.29428 125.48092c0.90722656 -0.04825592 1.6817932 0.6480789 1.7300568 1.5553055c0.04824829 0.90721893 -0.64808655 1.6817932 -1.5553131 1.7300568c-0.9072113 0.04824829 -1.6817932 -0.6480713 -1.7300415 -1.5553055c-0.04826355 -0.90722656 0.6480713 -1.6817932 1.5552979 -1.7300568z" fill-rule="nonzero"/><path fill="#000000" fill-opacity="0.0" d="m333.1942 162.65092c0 -54.12599 7.448822 -108.251976 14.897644 -108.251976" fill-rule="evenodd"/><path stroke="#000000" stroke-width="1.0" stroke-linejoin="round" stroke-linecap="butt" d="m333.22168 157.0227l0.020874023 -1.9776764c0.010650635 -0.8438568 0.023040771 -1.6871033 0.037139893 -2.5295105c0.056396484 -3.3696594 0.14001465 -6.7261047 0.24914551 -10.056122c0.2182312 -6.660034 0.53829956 -13.214355 0.9456482 -19.557251c0.8147278 -12.685776 1.9786072 -24.525833 3.3752441 -34.674454c1.3966675 -10.148621 3.0260925 -18.605812 4.7719116 -24.525837c0.4364624 -1.4800072 0.880188 -2.801445 1.3293762 -3.9510918c0.22457886 -0.5748215 0.4505005 -1.1067047 0.6776428 -1.5939789c0.11355591 -0.24364471 0.22735596 -0.47613144 0.34143066 -0.6972656c0.05706787 -0.110565186 0.11419678 -0.21829605 0.1713562 -0.32315826l0.121032715 -0.21575546" fill-rule="evenodd"/><path fill="#000000" stroke="#000000" stroke-width="1.0" stroke-linecap="butt" d="m333.22168 157.0227l-1.6768799 2.3701324l1.6536865 2.3863678l1.6768494 -2.3701172z" fill-rule="evenodd"/><path fill="#000000" stroke="#000000" stroke-width="1.0" stroke-linecap="butt" d="m347.7186 54.73162c0.60446167 0.6782379 0.54467773 1.7180748 -0.13357544 2.322544c-0.67822266 0.6044693 -1.7180786 0.5446739 -2.3225403 -0.133564c-0.60446167 -0.6782341 -0.54467773 -1.718071 0.13357544 -2.322544c0.67822266 -0.6044693 1.7180786 -0.5446701 2.3225403 0.133564z" fill-rule="nonzero"/><path fill="#000000" fill-opacity="0.0" d="m426.36484 159.12335c111.6525 0 203.2814 -26.181091 223.30502 -52.362198c20.02362 -26.181099 -31.558044 -52.362206 -63.116028 -52.362206" fill-rule="evenodd"/><path stroke="#000000" stroke-width="1.0" stroke-linejoin="round" stroke-linecap="butt" d="m431.99307 159.10054l2.1886597 -0.019989014c0.8647461 -0.009475708 1.7281799 -0.020507812 2.5903015 -0.033096313c3.4484253 -0.050338745 6.875763 -0.1254425 10.280365 -0.22451782c6.809265 -0.19813538 13.5277405 -0.49217224 20.142761 -0.8756714c13.230072 -0.7670288 26.04657 -1.8919983 38.348694 -3.3237762c24.604218 -2.8635712 47.15097 -6.954361 66.83432 -11.863312c39.36676 -9.817917 67.27991 -22.90847 77.29169 -35.999023c10.011841 -13.090553 2.1223145 -26.181099 -12.214905 -35.999016c-7.16864 -4.9089584 -15.949158 -8.999752 -24.909912 -11.863312c-4.4803467 -1.431778 -9.005798 -2.5567474 -13.397339 -3.3237724c-2.1957397 -0.3835144 -4.358032 -0.6775398 -6.4644775 -0.87568665c-0.5266113 -0.049533844 -1.0497437 -0.09307861 -1.5690308 -0.13053131l-0.77227783 -0.05134964" fill-rule="evenodd"/><path fill="#000000" stroke="#000000" stroke-width="1.0" stroke-linecap="butt" d="m431.99307 159.10054l-2.3850098 -1.6556244l-2.371521 1.6749115l2.3850098 1.6556244z" fill-rule="evenodd"/><path fill="#000000" stroke="#000000" stroke-width="1.0" stroke-linecap="butt" d="m587.0536 54.41459c0.028381348 -0.9080658 0.7875366 -1.6211624 1.6956177 -1.5927467c0.90808105 0.02841568 1.6211548 0.7875786 1.5927734 1.6956444c-0.028442383 0.908062 -0.78759766 1.6211586 -1.6956787 1.5927467c-0.90808105 -0.02841568 -1.6211548 -0.7875824 -1.5927124 -1.6956444z" fill-rule="nonzero"/><path fill="#000000" fill-opacity="0.0" d="m136.71654 154.72704l90.55118 0l0 38.771652l-90.55118 0z" fill-rule="evenodd"/><path fill="#000000" d="m148.29466 169.57141l0 2.359375l1.671875 0l0 0.546875l-1.671875 0l0 4.640625q0 0.6875 0.203125 0.9375q0.203125 0.234375 0.515625 0.234375q0.25 0 0.484375 -0.15625q0.25 -0.15625 0.390625 -0.46875l0.296875 0q-0.265625 0.765625 -0.765625 1.15625q-0.5 0.390625 -1.03125 0.390625q-0.359375 0 -0.703125 -0.203125q-0.34375 -0.203125 -0.515625 -0.578125q-0.15625 -0.375 -0.15625 -1.140625l0 -4.8125l-1.140625 0l0 -0.265625q0.4375 -0.171875 0.875 -0.578125q0.453125 -0.40625 0.8125 -0.96875q0.171875 -0.296875 0.5 -1.09375l0.234375 0zm6.1640625 2.609375l8.421875 0l0 0.640625l-8.421875 0l0 -0.640625zm0 2.546875l8.421875 0l0 0.640625l-8.421875 0l0 -0.640625zm20.179688 0.453125l0 1.109375l-1.421875 0l0 2.796875l-1.296875 0l0 -2.796875l-4.484375 0l0 -1.0l4.921875 -7.015625l0.859375 0l0 6.90625l1.421875 0zm-2.71875 0l0 -5.265625l-3.71875 5.265625l3.71875 0zm5.890625 -7.203125l0 7.109375l1.8125 -1.65625q0.578125 -0.53125 0.671875 -0.671875q0.0625 -0.09375 0.0625 -0.1875q0 -0.15625 -0.125 -0.265625q-0.125 -0.109375 -0.421875 -0.125l0 -0.25l3.109375 0l0 0.25q-0.640625 0.015625 -1.078125 0.203125q-0.421875 0.171875 -0.921875 0.625l-1.84375 1.703125l1.84375 2.3125q0.765625 0.96875 1.03125 1.21875q0.375 0.375 0.65625 0.484375q0.1875 0.078125 0.671875 0.078125l0 0.28125l-3.46875 0l0 -0.28125q0.296875 -0.015625 0.390625 -0.09375q0.109375 -0.078125 0.109375 -0.234375q0 -0.171875 -0.3125 -0.578125l-2.1875 -2.796875l0 2.375q0 0.6875 0.09375 0.90625q0.09375 0.21875 0.265625 0.3125q0.1875 0.09375 0.796875 0.109375l0 0.28125l-3.640625 0l0 -0.28125q0.546875 0 0.8125 -0.140625q0.171875 -0.078125 0.25 -0.265625q0.125 -0.25 0.125 -0.890625l0 -6.515625q0 -1.234375 -0.0625 -1.515625q-0.046875 -0.28125 -0.171875 -0.375q-0.125 -0.109375 -0.328125 -0.109375q-0.171875 0 -0.5 0.125l-0.125 -0.265625l2.125 -0.875l0.359375 0z" fill-rule="nonzero"/><path fill="#000000" fill-opacity="0.0" d="m205.51968 154.72704l90.55118 0l0 38.771652l-90.55118 0z" fill-rule="evenodd"/><path fill="#000000" d="m217.09781 169.57141l0 2.359375l1.671875 0l0 0.546875l-1.671875 0l0 4.640625q0 0.6875 0.203125 0.9375q0.203125 0.234375 0.515625 0.234375q0.25 0 0.484375 -0.15625q0.25 -0.15625 0.390625 -0.46875l0.296875 0q-0.265625 0.765625 -0.765625 1.15625q-0.5 0.390625 -1.03125 0.390625q-0.359375 0 -0.703125 -0.203125q-0.34375 -0.203125 -0.515625 -0.578125q-0.15625 -0.375 -0.15625 -1.140625l0 -4.8125l-1.140625 0l0 -0.265625q0.4375 -0.171875 0.875 -0.578125q0.453125 -0.40625 0.8125 -0.96875q0.171875 -0.296875 0.5 -1.09375l0.234375 0zm6.1640625 2.609375l8.421875 0l0 0.640625l-8.421875 0l0 -0.640625zm0 2.546875l8.421875 0l0 0.640625l-8.421875 0l0 -0.640625zm20.179688 0.453125l0 1.109375l-1.421875 0l0 2.796875l-1.296875 0l0 -2.796875l-4.484375 0l0 -1.0l4.921875 -7.015625l0.859375 0l0 6.90625l1.421875 0zm-2.71875 0l0 -5.265625l-3.71875 5.265625l3.71875 0zm5.890625 -7.203125l0 7.109375l1.8125 -1.65625q0.578125 -0.53125 0.671875 -0.671875q0.0625 -0.09375 0.0625 -0.1875q0 -0.15625 -0.125 -0.265625q-0.125 -0.109375 -0.421875 -0.125l0 -0.25l3.109375 0l0 0.25q-0.640625 0.015625 -1.078125 0.203125q-0.421875 0.171875 -0.921875 0.625l-1.84375 1.703125l1.84375 2.3125q0.765625 0.96875 1.03125 1.21875q0.375 0.375 0.65625 0.484375q0.1875 0.078125 0.671875 0.078125l0 0.28125l-3.46875 0l0 -0.28125q0.296875 -0.015625 0.390625 -0.09375q0.109375 -0.078125 0.109375 -0.234375q0 -0.171875 -0.3125 -0.578125l-2.1875 -2.796875l0 2.375q0 0.6875 0.09375 0.90625q0.09375 0.21875 0.265625 0.3125q0.1875 0.09375 0.796875 0.109375l0 0.28125l-3.640625 0l0 -0.28125q0.546875 0 0.8125 -0.140625q0.171875 -0.078125 0.25 -0.265625q0.125 -0.25 0.125 -0.890625l0 -6.515625q0 -1.234375 -0.0625 -1.515625q-0.046875 -0.28125 -0.171875 -0.375q-0.125 -0.109375 -0.328125 -0.109375q-0.171875 0 -0.5 0.125l-0.125 -0.265625l2.125 -0.875l0.359375 0zm13.5625 10.0l0 -3.890625l-3.890625 0l0 -0.640625l3.890625 0l0 -3.890625l0.625 0l0 3.890625l3.90625 0l0 0.640625l-3.90625 0l0 3.890625l-0.625 0zm10.7109375 -8.453125l2.578125 -1.25l0.265625 0l0 8.9375q0 0.890625 0.0625 1.109375q0.078125 0.21875 0.3125 0.34375q0.234375 0.109375 0.953125 0.125l0 0.296875l-3.984375 0l0 -0.296875q0.75 -0.015625 0.96875 -0.125q0.21875 -0.109375 0.296875 -0.296875q0.09375 -0.203125 0.09375 -1.15625l0 -5.71875q0 -1.15625 -0.078125 -1.484375q-0.046875 -0.25 -0.203125 -0.359375q-0.140625 -0.125 -0.34375 -0.125q-0.28125 0 -0.796875 0.25l-0.125 -0.25z" fill-rule="nonzero"/><path fill="#000000" fill-opacity="0.0" d="m295.36746 154.72704l90.55118 0l0 38.771652l-90.55118 0z" fill-rule="evenodd"/><path fill="#000000" d="m306.9456 169.57141l0 2.359375l1.671875 0l0 0.546875l-1.671875 0l0 4.640625q0 0.6875 0.203125 0.9375q0.203125 0.234375 0.515625 0.234375q0.25 0 0.484375 -0.15625q0.25 -0.15625 0.390625 -0.46875l0.296875 0q-0.265625 0.765625 -0.765625 1.15625q-0.5 0.390625 -1.03125 0.390625q-0.359375 0 -0.703125 -0.203125q-0.34375 -0.203125 -0.515625 -0.578125q-0.15625 -0.375 -0.15625 -1.140625l0 -4.8125l-1.140625 0l0 -0.265625q0.4375 -0.171875 0.875 -0.578125q0.453125 -0.40625 0.8125 -0.96875q0.171875 -0.296875 0.5 -1.09375l0.234375 0zm6.1640625 2.609375l8.421875 0l0 0.640625l-8.421875 0l0 -0.640625zm0 2.546875l8.421875 0l0 0.640625l-8.421875 0l0 -0.640625zm20.179688 0.453125l0 1.109375l-1.421875 0l0 2.796875l-1.296875 0l0 -2.796875l-4.484375 0l0 -1.0l4.921875 -7.015625l0.859375 0l0 6.90625l1.421875 0zm-2.71875 0l0 -5.265625l-3.71875 5.265625l3.71875 0zm5.890625 -7.203125l0 7.109375l1.8125 -1.65625q0.578125 -0.53125 0.671875 -0.671875q0.0625 -0.09375 0.0625 -0.1875q0 -0.15625 -0.125 -0.265625q-0.125 -0.109375 -0.421875 -0.125l0 -0.25l3.109375 0l0 0.25q-0.640625 0.015625 -1.078125 0.203125q-0.421875 0.171875 -0.921875 0.625l-1.84375 1.703125l1.84375 2.3125q0.765625 0.96875 1.03125 1.21875q0.375 0.375 0.65625 0.484375q0.1875 0.078125 0.671875 0.078125l0 0.28125l-3.46875 0l0 -0.28125q0.296875 -0.015625 0.390625 -0.09375q0.109375 -0.078125 0.109375 -0.234375q0 -0.171875 -0.3125 -0.578125l-2.1875 -2.796875l0 2.375q0 0.6875 0.09375 0.90625q0.09375 0.21875 0.265625 0.3125q0.1875 0.09375 0.796875 0.109375l0 0.28125l-3.640625 0l0 -0.28125q0.546875 0 0.8125 -0.140625q0.171875 -0.078125 0.25 -0.265625q0.125 -0.25 0.125 -0.890625l0 -6.515625q0 -1.234375 -0.0625 -1.515625q-0.046875 -0.28125 -0.171875 -0.375q-0.125 -0.109375 -0.328125 -0.109375q-0.171875 0 -0.5 0.125l-0.125 -0.265625l2.125 -0.875l0.359375 0zm13.5625 10.0l0 -3.890625l-3.890625 0l0 -0.640625l3.890625 0l0 -3.890625l0.625 0l0 3.890625l3.90625 0l0 0.640625l-3.90625 0l0 3.890625l-0.625 0zm16.179688 -0.9375l-0.75 2.046875l-6.25 0l0 -0.296875q2.765625 -2.515625 3.890625 -4.109375q1.125 -1.59375 1.125 -2.90625q0 -1.015625 -0.625 -1.65625q-0.609375 -0.65625 -1.46875 -0.65625q-0.78125 0 -1.40625 0.46875q-0.625 0.453125 -0.921875 1.328125l-0.28125 0q0.1875 -1.4375 1.0 -2.203125q0.8125 -0.78125 2.015625 -0.78125q1.296875 0 2.15625 0.828125q0.859375 0.828125 0.859375 1.953125q0 0.796875 -0.375 1.609375q-0.578125 1.265625 -1.875 2.671875q-1.9375 2.125 -2.421875 2.5625l2.765625 0q0.84375 0 1.171875 -0.0625q0.34375 -0.0625 0.609375 -0.25q0.28125 -0.1875 0.484375 -0.546875l0.296875 0z" fill-rule="nonzero"/><path fill="#000000" fill-opacity="0.0" d="m389.44882 154.72704l90.55118 0l0 38.771652l-90.55118 0z" fill-rule="evenodd"/><path fill="#000000" d="m401.02695 169.57141l0 2.359375l1.671875 0l0 0.546875l-1.671875 0l0 4.640625q0 0.6875 0.203125 0.9375q0.203125 0.234375 0.515625 0.234375q0.25 0 0.484375 -0.15625q0.25 -0.15625 0.390625 -0.46875l0.296875 0q-0.265625 0.765625 -0.765625 1.15625q-0.5 0.390625 -1.03125 0.390625q-0.359375 0 -0.703125 -0.203125q-0.34375 -0.203125 -0.515625 -0.578125q-0.15625 -0.375 -0.15625 -1.140625l0 -4.8125l-1.140625 0l0 -0.265625q0.4375 -0.171875 0.875 -0.578125q0.453125 -0.40625 0.8125 -0.96875q0.171875 -0.296875 0.5 -1.09375l0.234375 0zm6.1640625 2.609375l8.421875 0l0 0.640625l-8.421875 0l0 -0.640625zm0 2.546875l8.421875 0l0 0.640625l-8.421875 0l0 -0.640625zm20.179688 0.453125l0 1.109375l-1.421875 0l0 2.796875l-1.296875 0l0 -2.796875l-4.484375 0l0 -1.0l4.921875 -7.015625l0.859375 0l0 6.90625l1.421875 0zm-2.71875 0l0 -5.265625l-3.71875 5.265625l3.71875 0zm5.890625 -7.203125l0 7.109375l1.8125 -1.65625q0.578125 -0.53125 0.671875 -0.671875q0.0625 -0.09375 0.0625 -0.1875q0 -0.15625 -0.125 -0.265625q-0.125 -0.109375 -0.421875 -0.125l0 -0.25l3.109375 0l0 0.25q-0.640625 0.015625 -1.078125 0.203125q-0.421875 0.171875 -0.921875 0.625l-1.84375 1.703125l1.84375 2.3125q0.765625 0.96875 1.03125 1.21875q0.375 0.375 0.65625 0.484375q0.1875 0.078125 0.671875 0.078125l0 0.28125l-3.46875 0l0 -0.28125q0.296875 -0.015625 0.390625 -0.09375q0.109375 -0.078125 0.109375 -0.234375q0 -0.171875 -0.3125 -0.578125l-2.1875 -2.796875l0 2.375q0 0.6875 0.09375 0.90625q0.09375 0.21875 0.265625 0.3125q0.1875 0.09375 0.796875 0.109375l0 0.28125l-3.640625 0l0 -0.28125q0.546875 0 0.8125 -0.140625q0.171875 -0.078125 0.25 -0.265625q0.125 -0.25 0.125 -0.890625l0 -6.515625q0 -1.234375 -0.0625 -1.515625q-0.046875 -0.28125 -0.171875 -0.375q-0.125 -0.109375 -0.328125 -0.109375q-0.171875 0 -0.5 0.125l-0.125 -0.265625l2.125 -0.875l0.359375 0zm13.5625 10.0l0 -3.890625l-3.890625 0l0 -0.640625l3.890625 0l0 -3.890625l0.625 0l0 3.890625l3.90625 0l0 0.640625l-3.90625 0l0 3.890625l-0.625 0zm9.6484375 -7.46875q0.453125 -1.078125 1.140625 -1.65625q0.703125 -0.578125 1.734375 -0.578125q1.265625 0 1.953125 0.828125q0.515625 0.609375 0.515625 1.3125q0 1.15625 -1.453125 2.390625q0.96875 0.390625 1.46875 1.109375q0.5 0.703125 0.5 1.65625q0 1.375 -0.875 2.390625q-1.140625 1.3125 -3.296875 1.3125q-1.078125 0 -1.46875 -0.265625q-0.375 -0.265625 -0.375 -0.578125q0 -0.21875 0.171875 -0.390625q0.1875 -0.171875 0.453125 -0.171875q0.1875 0 0.390625 0.0625q0.140625 0.03125 0.609375 0.28125q0.46875 0.25 0.640625 0.296875q0.296875 0.078125 0.625 0.078125q0.796875 0 1.375 -0.609375q0.59375 -0.625 0.59375 -1.46875q0 -0.609375 -0.265625 -1.203125q-0.203125 -0.4375 -0.453125 -0.65625q-0.328125 -0.3125 -0.921875 -0.5625q-0.578125 -0.265625 -1.1875 -0.265625l-0.25 0l0 -0.234375q0.609375 -0.078125 1.234375 -0.4375q0.625 -0.375 0.90625 -0.890625q0.28125 -0.515625 0.28125 -1.125q0 -0.8125 -0.515625 -1.296875q-0.5 -0.5 -1.25 -0.5q-1.203125 0 -2.015625 1.296875l-0.265625 -0.125z" fill-rule="nonzero"/></g></svg>