<svg version="1.1" viewBox="0.0 0.0 720.0 230.0" fill="none" stroke="none" stroke-linecap="square" stroke-miterlimit="10" xmlns:xlink="http://www.w3.org/1999/xlink" xmlns="http://www.w3.org/2000/svg"><clipPath id="p.0"><path d="m0 0l720.0 0l0 230.0l-720.0 0l0 -230.0z" clip-rule="nonzero"/></clipPath><g clip-path="url(#p.0)"><path fill="#000000" fill-opacity="0.0" d="m0 0l720.0 0l0 230.0l-720.0 0z" fill-rule="evenodd"/><path fill="#000000" fill-opacity="0.0" d="m122.44751 160.31364l429.00787 0" fill-rule="evenodd"/><path stroke="#000000" stroke-width="1.0" stroke-linejoin="round" stroke-linecap="butt" d="m122.44751 160.31364l423.00787 0" fill-rule="evenodd"/><path fill="#000000" stroke="#000000" stroke-width="1.0" stroke-linecap="butt" d="m545.4554 161.96538l4.538086 -1.6517334l-4.538086 -1.6517334z" fill-rule="evenodd"/><path fill="#ffffff" d="m80.73622 32.064304l47.055115 0l0 47.05512l-47.055115 0z" fill-rule="evenodd"/><path stroke="#000000" stroke-width="1.0" stroke-linejoin="round" stroke-linecap="butt" stroke-dasharray="4.0,3.0" d="m80.73622 32.064304l47.055115 0l0 47.05512l-47.055115 0z" fill-rule="evenodd"/><path fill="#ffffff" d="m127.791336 32.064304l47.055115 0l0 47.05512l-47.055115 0z" fill-rule="evenodd"/><path stroke="#000000" stroke-width="1.0" stroke-linejoin="round" stroke-linecap="butt" stroke-dasharray="4.0,3.0" d="m127.791336 32.064304l47.055115 0l0 47.05512l-47.055115 0z" fill-rule="evenodd"/><path fill="#ffffff" d="m80.73622 79.11942l47.055115 0l0 47.055115l-47.055115 0z" fill-rule="evenodd"/><path stroke="#000000" stroke-width="1.0" stroke-linejoin="round" stroke-linecap="butt" stroke-dasharray="4.0,3.0" d="m80.73622 79.11942l47.055115 0l0 47.055115l-47.055115 0z" fill-rule="evenodd"/><path fill="#d9ead3" d="m127.791336 79.11942l47.055115 0l0 47.055115l-47.055115 0z" fill-rule="evenodd"/><path stroke="#000000" stroke-width="1.0" stroke-linejoin="round" stroke-linecap="butt" d="m127.791336 79.11942l47.055115 0l0 47.055115l-47.055115 0z" fill-rule="evenodd"/><path fill="#ffffff" d="m225.08792 32.064304l47.055115 0l0 47.05512l-47.055115 0z" fill-rule="evenodd"/><path stroke="#000000" stroke-width="1.0" stroke-linejoin="round" stroke-linecap="butt" stroke-dasharray="4.0,3.0" d="m225.08792 32.064304l47.055115 0l0 47.05512l-47.055115 0z" fill-rule="evenodd"/><path fill="#ffffff" d="m272.14304 32.064304l47.055115 0l0 47.05512l-47.055115 0z" fill-rule="evenodd"/><path stroke="#000000" stroke-width="1.0" stroke-linejoin="round" stroke-linecap="butt" stroke-dasharray="4.0,3.0" d="m272.14304 32.064304l47.055115 0l0 47.05512l-47.055115 0z" fill-rule="evenodd"/><path fill="#ffffff" d="m272.14304 79.11942l47.055115 0l0 47.055115l-47.055115 0z" fill-rule="evenodd"/><path stroke="#000000" stroke-width="1.0" stroke-linejoin="round" stroke-linecap="butt" stroke-dasharray="4.0,3.0" d="m272.14304 79.11942l47.055115 0l0 47.055115l-47.055115 0z" fill-rule="evenodd"/><path fill="#d9ead3" d="m225.08792 79.11942l47.055115 0l0 47.055115l-47.055115 0z" fill-rule="evenodd"/><path stroke="#000000" stroke-width="1.0" stroke-linejoin="round" stroke-linecap="butt" d="m225.08792 79.11942l47.055115 0l0 47.055115l-47.055115 0z" fill-rule="evenodd"/><path fill="#ffffff" d="m369.43964 79.11942l47.055115 0l0 47.055115l-47.055115 0z" fill-rule="evenodd"/><path stroke="#000000" stroke-width="1.0" stroke-linejoin="round" stroke-linecap="butt" stroke-dasharray="4.0,3.0" d="m369.43964 79.11942l47.055115 0l0 47.055115l-47.055115 0z" fill-rule="evenodd"/><path fill="#ffffff" d="m416.49475 32.064304l47.055115 0l0 47.05512l-47.055115 0z" fill-rule="evenodd"/><path stroke="#000000" stroke-width="1.0" stroke-linejoin="round" stroke-linecap="butt" stroke-dasharray="4.0,3.0" d="m416.49475 32.064304l47.055115 0l0 47.05512l-47.055115 0z" fill-rule="evenodd"/><path fill="#ffffff" d="m416.49475 79.11942l47.055115 0l0 47.055115l-47.055115 0z" fill-rule="evenodd"/><path stroke="#000000" stroke-width="1.0" stroke-linejoin="round" stroke-linecap="butt" stroke-dasharray="4.0,3.0" d="m416.49475 79.11942l47.055115 0l0 47.055115l-47.055115 0z" fill-rule="evenodd"/><path fill="#d9ead3" d="m369.43964 32.064304l47.055115 0l0 47.05512l-47.055115 0z" fill-rule="evenodd"/><path stroke="#000000" stroke-width="1.0" stroke-linejoin="round" stroke-linecap="butt" d="m369.43964 32.064304l47.055115 0l0 47.05512l-47.055115 0z" fill-rule="evenodd"/><path fill="#ffffff" d="m513.7913 79.11942l47.055115 0l0 47.055115l-47.055115 0z" fill-rule="evenodd"/><path stroke="#000000" stroke-width="1.0" stroke-linejoin="round" stroke-linecap="butt" stroke-dasharray="4.0,3.0" d="m513.7913 79.11942l47.055115 0l0 47.055115l-47.055115 0z" fill-rule="evenodd"/><path fill="#ffffff" d="m513.7913 32.064304l47.055115 0l0 47.05512l-47.055115 0z" fill-rule="evenodd"/><path stroke="#000000" stroke-width="1.0" stroke-linejoin="round" stroke-linecap="butt" stroke-dasharray="4.0,3.0" d="m513.7913 32.064304l47.055115 0l0 47.05512l-47.055115 0z" fill-rule="evenodd"/><path fill="#ffffff" d="m560.84644 79.11942l47.055115 0l0 47.055115l-47.055115 0z" fill-rule="evenodd"/><path stroke="#000000" stroke-width="1.0" stroke-linejoin="round" stroke-linecap="butt" stroke-dasharray="4.0,3.0" d="m560.84644 79.11942l47.055115 0l0 47.055115l-47.055115 0z" fill-rule="evenodd"/><path fill="#d9ead3" d="m560.84644 32.064304l47.055115 0l0 47.05512l-47.055115 0z" fill-rule="evenodd"/><path stroke="#000000" stroke-width="1.0" stroke-linejoin="round" stroke-linecap="butt" d="m560.84644 32.064304l47.055115 0l0 47.05512l-47.055115 0z" fill-rule="evenodd"/><path fill="#000000" fill-opacity="0.0" d="m492.0433 155.91995l90.55118 0l0 42.015747l-90.55118 0z" fill-rule="evenodd"/><path fill="#000000" d="m511.84018 170.48058l0.140625 2.90625l-0.359375 0q-0.09375 -0.765625 -0.265625 -1.09375q-0.28125 -0.53125 -0.75 -0.78125q-0.46875 -0.25 -1.234375 -0.25l-1.734375 0l0 9.4375q0 1.140625 0.234375 1.421875q0.34375 0.375 1.0625 0.375l0.4375 0l0 0.34375l-5.234375 0l0 -0.34375l0.4375 0q0.78125 0 1.109375 -0.46875q0.203125 -0.296875 0.203125 -1.328125l0 -9.4375l-1.484375 0q-0.875 0 -1.234375 0.125q-0.46875 0.171875 -0.8125 0.671875q-0.34375 0.484375 -0.40625 1.328125l-0.34375 0l0.140625 -2.90625l10.09375 0zm2.6459656 -0.59375q0.390625 0 0.65625 0.265625q0.265625 0.265625 0.265625 0.65625q0 0.375 -0.265625 0.65625q-0.265625 0.265625 -0.65625 0.265625q-0.375 0 -0.65625 -0.265625q-0.265625 -0.28125 -0.265625 -0.65625q0 -0.390625 0.265625 -0.65625q0.265625 -0.265625 0.65625 -0.265625zm0.765625 4.359375l0 6.703125q0 0.78125 0.109375 1.046875q0.109375 0.265625 0.328125 0.390625q0.234375 0.125 0.828125 0.125l0 0.328125l-4.0625 0l0 -0.328125q0.609375 0 0.8125 -0.109375q0.21875 -0.125 0.34375 -0.390625q0.125 -0.28125 0.125 -1.0625l0 -3.203125q0 -1.359375 -0.078125 -1.765625q-0.078125 -0.296875 -0.21875 -0.40625q-0.125 -0.109375 -0.359375 -0.109375q-0.265625 0 -0.625 0.140625l-0.125 -0.328125l2.515625 -1.03125l0.40625 0zm4.7770996 1.78125q0.90625 -0.90625 1.078125 -1.046875q0.40625 -0.34375 0.875 -0.53125q0.484375 -0.203125 0.9375 -0.203125q0.78125 0 1.34375 0.46875q0.578125 0.453125 0.765625 1.3125q0.9375 -1.09375 1.578125 -1.4375q0.65625 -0.34375 1.34375 -0.34375q0.65625 0 1.171875 0.34375q0.515625 0.34375 0.8125 1.125q0.203125 0.515625 0.203125 1.65625l0 3.578125q0 0.78125 0.125 1.078125q0.078125 0.203125 0.328125 0.34375q0.25 0.140625 0.796875 0.140625l0 0.328125l-4.109375 0l0 -0.328125l0.171875 0q0.53125 0 0.84375 -0.203125q0.203125 -0.15625 0.296875 -0.46875q0.03125 -0.15625 0.03125 -0.890625l0 -3.578125q0 -1.03125 -0.234375 -1.453125q-0.359375 -0.578125 -1.140625 -0.578125q-0.484375 0 -0.984375 0.25q-0.484375 0.234375 -1.171875 0.890625l-0.015625 0.09375l0.015625 0.40625l0 3.96875q0 0.859375 0.09375 1.078125q0.09375 0.203125 0.359375 0.34375q0.265625 0.140625 0.90625 0.140625l0 0.328125l-4.21875 0l0 -0.328125q0.6875 0 0.953125 -0.15625q0.265625 -0.171875 0.359375 -0.5q0.046875 -0.15625 0.046875 -0.90625l0 -3.578125q0 -1.03125 -0.296875 -1.46875q-0.40625 -0.59375 -1.125 -0.59375q-0.5 0 -0.96875 0.265625q-0.765625 0.40625 -1.171875 0.90625l0 4.46875q0 0.828125 0.109375 1.078125q0.109375 0.234375 0.328125 0.359375q0.234375 0.125 0.921875 0.125l0 0.328125l-4.125 0l0 -0.328125q0.5625 0 0.796875 -0.125q0.234375 -0.125 0.34375 -0.390625q0.125 -0.265625 0.125 -1.046875l0 -3.1875q0 -1.375 -0.09375 -1.765625q-0.0625 -0.3125 -0.203125 -0.421875q-0.125 -0.109375 -0.359375 -0.109375q-0.265625 0 -0.609375 0.140625l-0.140625 -0.328125l2.515625 -1.03125l0.390625 0l0 1.78125zm13.433289 1.609375q0 1.859375 0.90625 2.921875q0.90625 1.046875 2.140625 1.046875q0.8125 0 1.421875 -0.4375q0.609375 -0.453125 1.015625 -1.546875l0.28125 0.171875q-0.1875 1.25 -1.109375 2.28125q-0.921875 1.015625 -2.296875 1.015625q-1.515625 0 -2.59375 -1.171875q-1.0625 -1.171875 -1.0625 -3.140625q0 -2.140625 1.09375 -3.328125q1.109375 -1.203125 2.765625 -1.203125q1.40625 0 2.296875 0.921875q0.90625 0.921875 0.90625 2.46875l-5.765625 0zm0 -0.53125l3.859375 0q-0.046875 -0.796875 -0.1875 -1.125q-0.234375 -0.515625 -0.6875 -0.796875q-0.4375 -0.296875 -0.9375 -0.296875q-0.75 0 -1.34375 0.59375q-0.59375 0.578125 -0.703125 1.625zm7.2961426 8.84375l0 -0.40625q0.9375 -0.3125 1.453125 -0.96875q0.515625 -0.640625 0.515625 -1.375q0 -0.171875 -0.078125 -0.28125q-0.0625 -0.09375 -0.125 -0.09375q-0.109375 0 -0.4375 0.1875q-0.171875 0.078125 -0.34375 0.078125q-0.453125 0 -0.71875 -0.25q-0.265625 -0.265625 -0.265625 -0.734375q0 -0.453125 0.34375 -0.765625q0.34375 -0.328125 0.828125 -0.328125q0.609375 0 1.078125 0.53125q0.46875 0.515625 0.46875 1.390625q0 0.9375 -0.65625 1.734375q-0.65625 0.8125 -2.0625 1.28125zm11.328125 -14.203125l0 2.75l1.953125 0l0 0.640625l-1.953125 0l0 5.40625q0 0.8125 0.234375 1.09375q0.234375 0.28125 0.59375 0.28125q0.3125 0 0.59375 -0.1875q0.28125 -0.1875 0.4375 -0.546875l0.34375 0q-0.3125 0.890625 -0.90625 1.34375q-0.578125 0.453125 -1.1875 0.453125q-0.421875 0 -0.828125 -0.234375q-0.390625 -0.234375 -0.59375 -0.65625q-0.1875 -0.4375 -0.1875 -1.34375l0 -5.609375l-1.3125 0l0 -0.296875q0.5 -0.203125 1.015625 -0.6875q0.53125 -0.484375 0.9375 -1.125q0.203125 -0.359375 0.578125 -1.28125l0.28125 0z" fill-rule="nonzero"/><path fill="#000000" fill-opacity="0.0" d="m201.55511 160.31627c-25.118103 0 -50.23622 -17.070862 -50.23622 -34.14173" fill-rule="evenodd"/><path stroke="#000000" stroke-width="1.0" stroke-linejoin="round" stroke-linecap="butt" d="m195.93379 160.03662l-0.25375366 -0.024795532c-0.39007568 -0.040039062 -0.77967834 -0.0839386 -1.1687012 -0.1315918c-0.7780304 -0.095336914 -1.5537872 -0.20578003 -2.3264618 -0.33081055c-3.0906982 -0.5001221 -6.1323395 -1.2336426 -9.075867 -2.1672058c-5.8870544 -1.8671265 -11.381653 -4.5344543 -16.091293 -7.7352295c-4.7096405 -3.2007904 -8.634354 -6.9350433 -11.381638 -10.936035c-1.3736572 -2.0004883 -2.452942 -4.0676575 -3.1888275 -6.1681824c-0.18397522 -0.5251312 -0.34648132 -1.0523376 -0.48675537 -1.5811157c-0.070129395 -0.26438904 -0.13471985 -0.5291748 -0.19364929 -0.79426575l-0.04737854 -0.22407532" fill-rule="evenodd"/><path fill="#000000" stroke="#000000" stroke-width="1.0" stroke-linecap="butt" d="m195.93379 160.03662l2.2926025 1.7814026l2.458084 -1.5450592l-2.2926025 -1.7814026z" fill-rule="evenodd"/><path fill="#000000" stroke="#000000" stroke-width="1.0" stroke-linecap="butt" d="m151.37175 126.67174c0.90341187 -0.09601593 1.713623 0.5585098 1.8096466 1.4619293c0.0960083 0.90341187 -0.55851746 1.713623 -1.4619293 1.8096466c-0.9034271 0.09602356 -1.713623 -0.5585022 -1.8096466 -1.4619293c-0.09602356 -0.9034195 0.5585022 -1.713623 1.4619293 -1.8096466z" fill-rule="nonzero"/><path fill="#000000" fill-opacity="0.0" d="m262.22177 163.84383c0 -9.417313 -3.4015503 -14.125977 -6.803131 -18.83464c-3.4015808 -4.708664 -6.8031616 -9.417328 -6.8031616 -18.834648" fill-rule="evenodd"/><path stroke="#000000" stroke-width="1.0" stroke-linejoin="round" stroke-linecap="butt" d="m261.75897 158.23462l-0.053955078 -0.29699707c-0.021972656 -0.11669922 -0.0446167 -0.23252869 -0.067871094 -0.3474884c-0.3720398 -1.8393097 -0.90356445 -3.4579163 -1.5413513 -4.929367c-1.2755737 -2.9429169 -2.9763794 -5.2972565 -4.6771545 -7.651581c-1.7007904 -2.3543243 -3.4015808 -4.708664 -4.67717 -7.651581c-0.6378021 -1.4714508 -1.1692963 -3.0900574 -1.541336 -4.929367c-0.09301758 -0.45983887 -0.17605591 -0.9334717 -0.24832153 -1.4220276c-0.036102295 -0.24429321 -0.0695343 -0.49230957 -0.10017395 -0.7442169l-0.034835815 -0.3027954" fill-rule="evenodd"/><path fill="#000000" stroke="#000000" stroke-width="1.0" stroke-linecap="butt" d="m261.75894 158.23462l-1.4640503 2.5071564l1.8551941 2.2332916l1.4640808 -2.5071716z" fill-rule="evenodd"/><path fill="#000000" stroke="#000000" stroke-width="1.0" stroke-linecap="butt" d="m248.64204 126.673836c0.90722656 -0.04825592 1.6817932 0.6480713 1.7300568 1.5553055c0.04826355 0.9072113 -0.6480713 1.6817932 -1.5552979 1.7300415c-0.90722656 0.04826355 -1.6817932 -0.6480713 -1.7300568 -1.5552979c-0.04826355 -0.90721893 0.6480713 -1.6817932 1.5552979 -1.7300491z" fill-rule="nonzero"/><path fill="#000000" fill-opacity="0.0" d="m354.542 163.84383c0 -54.125977 7.448822 -108.25197 14.897644 -108.25197" fill-rule="evenodd"/><path stroke="#000000" stroke-width="1.0" stroke-linejoin="round" stroke-linecap="butt" d="m354.56946 158.21562l0.020874023 -1.9776764c0.010650635 -0.8438721 0.023010254 -1.6871033 0.037139893 -2.5295258c0.056365967 -3.3696594 0.14004517 -6.7260895 0.24911499 -10.056122c0.2182312 -6.660034 0.5383301 -13.21434 0.9456787 -19.557236c0.81469727 -12.685776 1.9785767 -24.525833 3.3752441 -34.67446c1.396637 -10.148621 3.0260925 -18.605804 4.7719116 -24.525833c0.43643188 -1.4800072 0.8801575 -2.801445 1.3293457 -3.9510918c0.22460938 -0.5748215 0.450531 -1.1067047 0.6776428 -1.5939789c0.11355591 -0.24364471 0.22738647 -0.47613144 0.34146118 -0.6972656c0.057037354 -0.110565186 0.11416626 -0.21829605 0.1713562 -0.32315826l0.1210022 -0.21575546" fill-rule="evenodd"/><path fill="#000000" stroke="#000000" stroke-width="1.0" stroke-linecap="butt" d="m354.56946 158.21562l-1.6768799 2.3701172l1.653656 2.386383l1.6768799 -2.3701324z" fill-rule="evenodd"/><path fill="#000000" stroke="#000000" stroke-width="1.0" stroke-linecap="butt" d="m369.06638 55.924534c0.60446167 0.6782379 0.5446472 1.7180748 -0.13357544 2.322544c-0.67822266 0.6044731 -1.7180786 0.5446739 -2.3225403 -0.133564c-0.60446167 -0.6782341 -0.54467773 -1.718071 0.13354492 -2.322544c0.6782532 -0.6044693 1.7180786 -0.5446701 2.3225708 0.133564z" fill-rule="nonzero"/><path fill="#000000" fill-opacity="0.0" d="m447.7126 160.31627c92.59485 0 165.16608 -26.181091 185.1897 -52.362198c20.02362 -26.181107 -12.500366 -52.36221 -25.000732 -52.36221" fill-rule="evenodd"/><path stroke="#000000" stroke-width="1.0" stroke-linejoin="round" stroke-linecap="butt" d="m453.34076 160.28282l0.848999 -0.009353638c0.71591187 -0.009490967 1.4305725 -0.020507812 2.1439514 -0.033096313c2.8535156 -0.050338745 5.686432 -0.1254425 8.497833 -0.22451782c5.6228027 -0.19815063 11.159424 -0.49217224 16.60199 -0.87568665c10.885071 -0.7670288 21.393768 -1.8919983 31.462585 -3.3237762c20.137573 -2.863556 38.51544 -6.9543457 54.62555 -11.863312c32.220093 -9.817902 55.368774 -22.908463 65.380615 -35.99901c10.01178 -13.090553 6.8867188 -26.181107 -0.303833 -35.999016c-3.595337 -4.9089584 -8.207031 -8.999756 -12.701111 -11.863316c-2.2470703 -1.431778 -4.4647217 -2.5567474 -6.5112915 -3.3237724c-0.5115967 -0.19175339 -1.0125732 -0.3611374 -1.5006104 -0.50735474l-0.24145508 -0.06994629" fill-rule="evenodd"/><path fill="#000000" stroke="#000000" stroke-width="1.0" stroke-linecap="butt" d="m453.3408 160.28284l-2.388153 -1.6511383l-2.3683167 1.6793976l2.3881226 1.651123z" fill-rule="evenodd"/><path fill="#000000" stroke="#000000" stroke-width="1.0" stroke-linecap="butt" d="m608.3953 55.67086c0.14349365 -0.8970947 0.9871216 -1.5079765 1.8842163 -1.3644333c0.8970947 0.14353943 1.5079956 0.9871445 1.3644409 1.8842392c-0.14355469 0.89709854 -0.9871826 1.5079765 -1.8842773 1.3644371c-0.8970947 -0.14353943 -1.5079346 -0.9871445 -1.3643799 -1.884243z" fill-rule="nonzero"/><path fill="#000000" fill-opacity="0.0" d="m158.0643 155.91995l90.55118 0l0 38.771652l-90.55118 0z" fill-rule="evenodd"/><path fill="#000000" d="m169.64243 170.76433l0 2.359375l1.671875 0l0 0.546875l-1.671875 0l0 4.640625q0 0.6875 0.203125 0.9375q0.203125 0.234375 0.515625 0.234375q0.25 0 0.484375 -0.15625q0.25 -0.15625 0.390625 -0.46875l0.296875 0q-0.265625 0.765625 -0.765625 1.15625q-0.5 0.390625 -1.03125 0.390625q-0.359375 0 -0.703125 -0.203125q-0.34375 -0.203125 -0.515625 -0.578125q-0.15625 -0.375 -0.15625 -1.140625l0 -4.8125l-1.140625 0l0 -0.265625q0.4375 -0.171875 0.875 -0.578125q0.453125 -0.40625 0.8125 -0.96875q0.171875 -0.296875 0.5 -1.09375l0.234375 0zm6.1640625 2.609375l8.421875 0l0 0.640625l-8.421875 0l0 -0.640625zm0 2.546875l8.421875 0l0 0.640625l-8.421875 0l0 -0.640625zm20.179688 0.453125l0 1.109375l-1.421875 0l0 2.796875l-1.296875 0l0 -2.796875l-4.484375 0l0 -1.0l4.921875 -7.015625l0.859375 0l0 6.90625l1.421875 0zm-2.71875 0l0 -5.265625l-3.71875 5.265625l3.71875 0zm5.890625 -7.203125l0 7.109375l1.8125 -1.65625q0.578125 -0.53125 0.671875 -0.671875q0.0625 -0.09375 0.0625 -0.1875q0 -0.15625 -0.125 -0.265625q-0.125 -0.109375 -0.421875 -0.125l0 -0.25l3.109375 0l0 0.25q-0.640625 0.015625 -1.078125 0.203125q-0.421875 0.171875 -0.921875 0.625l-1.84375 1.703125l1.84375 2.3125q0.765625 0.96875 1.03125 1.21875q0.375 0.375 0.65625 0.484375q0.1875 0.078125 0.671875 0.078125l0 0.28125l-3.46875 0l0 -0.28125q0.296875 -0.015625 0.390625 -0.09375q0.109375 -0.078125 0.109375 -0.234375q0 -0.171875 -0.3125 -0.578125l-2.1875 -2.796875l0 2.375q0 0.6875 0.09375 0.90625q0.09375 0.21875 0.265625 0.3125q0.1875 0.09375 0.796875 0.109375l0 0.28125l-3.640625 0l0 -0.28125q0.546875 0 0.8125 -0.140625q0.171875 -0.078125 0.25 -0.265625q0.125 -0.25 0.125 -0.890625l0 -6.515625q0 -1.234375 -0.0625 -1.515625q-0.046875 -0.28125 -0.171875 -0.375q-0.125 -0.109375 -0.328125 -0.109375q-0.171875 0 -0.5 0.125l-0.125 -0.265625l2.125 -0.875l0.359375 0z" fill-rule="nonzero"/><path fill="#000000" fill-opacity="0.0" d="m226.86745 155.91995l90.55119 0l0 38.771652l-90.55119 0z" fill-rule="evenodd"/><path fill="#000000" d="m238.44557 170.76433l0 2.359375l1.671875 0l0 0.546875l-1.671875 0l0 4.640625q0 0.6875 0.203125 0.9375q0.203125 0.234375 0.515625 0.234375q0.25 0 0.484375 -0.15625q0.25 -0.15625 0.390625 -0.46875l0.296875 0q-0.265625 0.765625 -0.765625 1.15625q-0.5 0.390625 -1.03125 0.390625q-0.359375 0 -0.703125 -0.203125q-0.34375 -0.203125 -0.515625 -0.578125q-0.15625 -0.375 -0.15625 -1.140625l0 -4.8125l-1.140625 0l0 -0.265625q0.4375 -0.171875 0.875 -0.578125q0.453125 -0.40625 0.8125 -0.96875q0.171875 -0.296875 0.5 -1.09375l0.234375 0zm6.1640625 2.609375l8.421875 0l0 0.640625l-8.421875 0l0 -0.640625zm0 2.546875l8.421875 0l0 0.640625l-8.421875 0l0 -0.640625zm20.179703 0.453125l0 1.109375l-1.421875 0l0 2.796875l-1.296875 0l0 -2.796875l-4.484375 0l0 -1.0l4.921875 -7.015625l0.859375 0l0 6.90625l1.421875 0zm-2.71875 0l0 -5.265625l-3.71875 5.265625l3.71875 0zm5.890625 -7.203125l0 7.109375l1.8125 -1.65625q0.578125 -0.53125 0.671875 -0.671875q0.0625 -0.09375 0.0625 -0.1875q0 -0.15625 -0.125 -0.265625q-0.125 -0.109375 -0.421875 -0.125l0 -0.25l3.109375 0l0 0.25q-0.640625 0.015625 -1.078125 0.203125q-0.421875 0.171875 -0.921875 0.625l-1.84375 1.703125l1.84375 2.3125q0.765625 0.96875 1.03125 1.21875q0.375 0.375 0.65625 0.484375q0.1875 0.078125 0.671875 0.078125l0 0.28125l-3.46875 0l0 -0.28125q0.296875 -0.015625 0.390625 -0.09375q0.109375 -0.078125 0.109375 -0.234375q0 -0.171875 -0.3125 -0.578125l-2.1875 -2.796875l0 2.375q0 0.6875 0.09375 0.90625q0.09375 0.21875 0.265625 0.3125q0.1875 0.09375 0.796875 0.109375l0 0.28125l-3.640625 0l0 -0.28125q0.546875 0 0.8125 -0.140625q0.171875 -0.078125 0.25 -0.265625q0.125 -0.25 0.125 -0.890625l0 -6.515625q0 -1.234375 -0.0625 -1.515625q-0.046875 -0.28125 -0.171875 -0.375q-0.125 -0.109375 -0.328125 -0.109375q-0.171875 0 -0.5 0.125l-0.125 -0.265625l2.125 -0.875l0.359375 0zm13.5625 10.0l0 -3.890625l-3.890625 0l0 -0.640625l3.890625 0l0 -3.890625l0.625 0l0 3.890625l3.90625 0l0 0.640625l-3.90625 0l0 3.890625l-0.625 0zm10.7109375 -8.453125l2.578125 -1.25l0.265625 0l0 8.9375q0 0.890625 0.0625 1.109375q0.078125 0.21875 0.3125 0.34375q0.234375 0.109375 0.953125 0.125l0 0.296875l-3.984375 0l0 -0.296875q0.75 -0.015625 0.96875 -0.125q0.21875 -0.109375 0.296875 -0.296875q0.09375 -0.203125 0.09375 -1.15625l0 -5.71875q0 -1.15625 -0.078125 -1.484375q-0.046875 -0.25 -0.203125 -0.359375q-0.140625 -0.125 -0.34375 -0.125q-0.28125 0 -0.796875 0.25l-0.125 -0.25z" fill-rule="nonzero"/><path fill="#000000" fill-opacity="0.0" d="m316.7152 155.91995l90.55121 0l0 38.771652l-90.55121 0z" fill-rule="evenodd"/><path fill="#000000" d="m328.29333 170.76433l0 2.359375l1.671875 0l0 0.546875l-1.671875 0l0 4.640625q0 0.6875 0.203125 0.9375q0.203125 0.234375 0.515625 0.234375q0.25 0 0.484375 -0.15625q0.25 -0.15625 0.390625 -0.46875l0.296875 0q-0.265625 0.765625 -0.765625 1.15625q-0.5 0.390625 -1.03125 0.390625q-0.359375 0 -0.703125 -0.203125q-0.34375 -0.203125 -0.515625 -0.578125q-0.15625 -0.375 -0.15625 -1.140625l0 -4.8125l-1.140625 0l0 -0.265625q0.4375 -0.171875 0.875 -0.578125q0.453125 -0.40625 0.8125 -0.96875q0.171875 -0.296875 0.5 -1.09375l0.234375 0zm6.1640625 2.609375l8.421875 0l0 0.640625l-8.421875 0l0 -0.640625zm0 2.546875l8.421875 0l0 0.640625l-8.421875 0l0 -0.640625zm20.179688 0.453125l0 1.109375l-1.421875 0l0 2.796875l-1.296875 0l0 -2.796875l-4.484375 0l0 -1.0l4.921875 -7.015625l0.859375 0l0 6.90625l1.421875 0zm-2.71875 0l0 -5.265625l-3.71875 5.265625l3.71875 0zm5.890625 -7.203125l0 7.109375l1.8125 -1.65625q0.578125 -0.53125 0.671875 -0.671875q0.0625 -0.09375 0.0625 -0.1875q0 -0.15625 -0.125 -0.265625q-0.125 -0.109375 -0.421875 -0.125l0 -0.25l3.109375 0l0 0.25q-0.640625 0.015625 -1.078125 0.203125q-0.421875 0.171875 -0.921875 0.625l-1.84375 1.703125l1.84375 2.3125q0.765625 0.96875 1.03125 1.21875q0.375 0.375 0.65625 0.484375q0.1875 0.078125 0.671875 0.078125l0 0.28125l-3.46875 0l0 -0.28125q0.296875 -0.015625 0.390625 -0.09375q0.109375 -0.078125 0.109375 -0.234375q0 -0.171875 -0.3125 -0.578125l-2.1875 -2.796875l0 2.375q0 0.6875 0.09375 0.90625q0.09375 0.21875 0.265625 0.3125q0.1875 0.09375 0.796875 0.109375l0 0.28125l-3.640625 0l0 -0.28125q0.546875 0 0.8125 -0.140625q0.171875 -0.078125 0.25 -0.265625q0.125 -0.25 0.125 -0.890625l0 -6.515625q0 -1.234375 -0.0625 -1.515625q-0.046875 -0.28125 -0.171875 -0.375q-0.125 -0.109375 -0.328125 -0.109375q-0.171875 0 -0.5 0.125l-0.125 -0.265625l2.125 -0.875l0.359375 0zm13.5625 10.0l0 -3.890625l-3.890625 0l0 -0.640625l3.890625 0l0 -3.890625l0.625 0l0 3.890625l3.90625 0l0 0.640625l-3.90625 0l0 3.890625l-0.625 0zm16.179688 -0.9375l-0.75 2.046875l-6.25 0l0 -0.296875q2.765625 -2.515625 3.890625 -4.109375q1.125 -1.59375 1.125 -2.90625q0 -1.015625 -0.625 -1.65625q-0.609375 -0.65625 -1.46875 -0.65625q-0.78125 0 -1.40625 0.46875q-0.625 0.453125 -0.921875 1.328125l-0.28125 0q0.1875 -1.4375 1.0 -2.203125q0.8125 -0.78125 2.015625 -0.78125q1.296875 0 2.15625 0.828125q0.859375 0.828125 0.859375 1.953125q0 0.796875 -0.375 1.609375q-0.578125 1.265625 -1.875 2.671875q-1.9375 2.125 -2.421875 2.5625l2.765625 0q0.84375 0 1.171875 -0.0625q0.34375 -0.0625 0.609375 -0.25q0.28125 -0.1875 0.484375 -0.546875l0.296875 0z" fill-rule="nonzero"/><path fill="#000000" fill-opacity="0.0" d="m410.7966 155.91995l90.55118 0l0 38.771652l-90.55118 0z" fill-rule="evenodd"/><path fill="#000000" d="m422.37473 170.76433l0 2.359375l1.671875 0l0 0.546875l-1.671875 0l0 4.640625q0 0.6875 0.203125 0.9375q0.203125 0.234375 0.515625 0.234375q0.25 0 0.484375 -0.15625q0.25 -0.15625 0.390625 -0.46875l0.296875 0q-0.265625 0.765625 -0.765625 1.15625q-0.5 0.390625 -1.03125 0.390625q-0.359375 0 -0.703125 -0.203125q-0.34375 -0.203125 -0.515625 -0.578125q-0.15625 -0.375 -0.15625 -1.140625l0 -4.8125l-1.140625 0l0 -0.265625q0.4375 -0.171875 0.875 -0.578125q0.453125 -0.40625 0.8125 -0.96875q0.171875 -0.296875 0.5 -1.09375l0.234375 0zm6.1640625 2.609375l8.421875 0l0 0.640625l-8.421875 0l0 -0.640625zm0 2.546875l8.421875 0l0 0.640625l-8.421875 0l0 -0.640625zm20.179688 0.453125l0 1.109375l-1.421875 0l0 2.796875l-1.296875 0l0 -2.796875l-4.484375 0l0 -1.0l4.921875 -7.015625l0.859375 0l0 6.90625l1.421875 0zm-2.71875 0l0 -5.265625l-3.71875 5.265625l3.71875 0zm5.890625 -7.203125l0 7.109375l1.8125 -1.65625q0.578125 -0.53125 0.671875 -0.671875q0.0625 -0.09375 0.0625 -0.1875q0 -0.15625 -0.125 -0.265625q-0.125 -0.109375 -0.421875 -0.125l0 -0.25l3.109375 0l0 0.25q-0.640625 0.015625 -1.078125 0.203125q-0.421875 0.171875 -0.921875 0.625l-1.84375 1.703125l1.84375 2.3125q0.765625 0.96875 1.03125 1.21875q0.375 0.375 0.65625 0.484375q0.1875 0.078125 0.671875 0.078125l0 0.28125l-3.46875 0l0 -0.28125q0.296875 -0.015625 0.390625 -0.09375q0.109375 -0.078125 0.109375 -0.234375q0 -0.171875 -0.3125 -0.578125l-2.1875 -2.796875l0 2.375q0 0.6875 0.09375 0.90625q0.09375 0.21875 0.265625 0.3125q0.1875 0.09375 0.796875 0.109375l0 0.28125l-3.640625 0l0 -0.28125q0.546875 0 0.8125 -0.140625q0.171875 -0.078125 0.25 -0.265625q0.125 -0.25 0.125 -0.890625l0 -6.515625q0 -1.234375 -0.0625 -1.515625q-0.046875 -0.28125 -0.171875 -0.375q-0.125 -0.109375 -0.328125 -0.109375q-0.171875 0 -0.5 0.125l-0.125 -0.265625l2.125 -0.875l0.359375 0zm13.5625 10.0l0 -3.890625l-3.890625 0l0 -0.640625l3.890625 0l0 -3.890625l0.625 0l0 3.890625l3.90625 0l0 0.640625l-3.90625 0l0 3.890625l-0.625 0zm9.6484375 -7.46875q0.453125 -1.078125 1.140625 -1.65625q0.703125 -0.578125 1.734375 -0.578125q1.265625 0 1.953125 0.828125q0.515625 0.609375 0.515625 1.3125q0 1.15625 -1.453125 2.390625q0.96875 0.390625 1.46875 1.109375q0.5 0.703125 0.5 1.65625q0 1.375 -0.875 2.390625q-1.140625 1.3125 -3.296875 1.3125q-1.078125 0 -1.46875 -0.265625q-0.375 -0.265625 -0.375 -0.578125q0 -0.21875 0.171875 -0.390625q0.1875 -0.171875 0.453125 -0.171875q0.1875 0 0.390625 0.0625q0.140625 0.03125 0.609375 0.28125q0.46875 0.25 0.640625 0.296875q0.296875 0.078125 0.625 0.078125q0.796875 0 1.375 -0.609375q0.59375 -0.625 0.59375 -1.46875q0 -0.609375 -0.265625 -1.203125q-0.203125 -0.4375 -0.453125 -0.65625q-0.328125 -0.3125 -0.921875 -0.5625q-0.578125 -0.265625 -1.1875 -0.265625l-0.25 0l0 -0.234375q0.609375 -0.078125 1.234375 -0.4375q0.625 -0.375 0.90625 -0.890625q0.28125 -0.515625 0.28125 -1.125q0 -0.8125 -0.515625 -1.296875q-0.5 -0.5 -1.25 -0.5q-1.203125 0 -2.015625 1.296875l-0.265625 -0.125z" fill-rule="nonzero"/></g></svg>